<svg xmlns="http://www.w3.org/2000/svg" width="2600" height="1500">
<rect x="0" y="0" width="100%" height="100%" fill="#f8fafc"/>
<text x="130" y="52" font-family="Arial" font-size="34" fill="#0f172a">FF Benchmark (Complexity vs Time)</text>
<text x="130" y="84" font-family="Arial" font-size="20" fill="#334155">Complexity = l=p=c=g. Unsolved instances are shown at timeout line.</text>
<line x1="130" y1="1340" x2="2520" y2="1340" stroke="#334155" stroke-width="3"/>
<line x1="130" y1="1340" x2="130" y2="100" stroke="#334155" stroke-width="3"/>
<line x1="130.00" y1="1340" x2="130.00" y2="1354" stroke="#334155" stroke-width="2"/>
<text x="130.00" y="1382" text-anchor="middle" font-family="Arial" font-size="18" fill="#334155">2</text>
<line x1="179.79" y1="1340" x2="179.79" y2="1354" stroke="#334155" stroke-width="2"/>
<text x="179.79" y="1382" text-anchor="middle" font-family="Arial" font-size="18" fill="#334155">3</text>
<line x1="229.58" y1="1340" x2="229.58" y2="1354" stroke="#334155" stroke-width="2"/>
<text x="229.58" y="1382" text-anchor="middle" font-family="Arial" font-size="18" fill="#334155">4</text>
<line x1="279.38" y1="1340" x2="279.38" y2="1354" stroke="#334155" stroke-width="2"/>
<text x="279.38" y="1382" text-anchor="middle" font-family="Arial" font-size="18" fill="#334155">5</text>
<line x1="329.17" y1="1340" x2="329.17" y2="1354" stroke="#334155" stroke-width="2"/>
<text x="329.17" y="1382" text-anchor="middle" font-family="Arial" font-size="18" fill="#334155">6</text>
<line x1="378.96" y1="1340" x2="378.96" y2="1354" stroke="#334155" stroke-width="2"/>
<text x="378.96" y="1382" text-anchor="middle" font-family="Arial" font-size="18" fill="#334155">7</text>
<line x1="428.75" y1="1340" x2="428.75" y2="1354" stroke="#334155" stroke-width="2"/>
<text x="428.75" y="1382" text-anchor="middle" font-family="Arial" font-size="18" fill="#334155">8</text>
<line x1="478.54" y1="1340" x2="478.54" y2="1354" stroke="#334155" stroke-width="2"/>
<text x="478.54" y="1382" text-anchor="middle" font-family="Arial" font-size="18" fill="#334155">9</text>
<line x1="528.33" y1="1340" x2="528.33" y2="1354" stroke="#334155" stroke-width="2"/>
<text x="528.33" y="1382" text-anchor="middle" font-family="Arial" font-size="18" fill="#334155">10</text>
<line x1="578.12" y1="1340" x2="578.12" y2="1354" stroke="#334155" stroke-width="2"/>
<text x="578.12" y="1382" text-anchor="middle" font-family="Arial" font-size="18" fill="#334155">11</text>
<line x1="627.92" y1="1340" x2="627.92" y2="1354" stroke="#334155" stroke-width="2"/>
<text x="627.92" y="1382" text-anchor="middle" font-family="Arial" font-size="18" fill="#334155">12</text>
<line x1="677.71" y1="1340" x2="677.71" y2="1354" stroke="#334155" stroke-width="2"/>
<text x="677.71" y="1382" text-anchor="middle" font-family="Arial" font-size="18" fill="#334155">13</text>
<line x1="727.50" y1="1340" x2="727.50" y2="1354" stroke="#334155" stroke-width="2"/>
<text x="727.50" y="1382" text-anchor="middle" font-family="Arial" font-size="18" fill="#334155">14</text>
<line x1="777.29" y1="1340" x2="777.29" y2="1354" stroke="#334155" stroke-width="2"/>
<text x="777.29" y="1382" text-anchor="middle" font-family="Arial" font-size="18" fill="#334155">15</text>
<line x1="827.08" y1="1340" x2="827.08" y2="1354" stroke="#334155" stroke-width="2"/>
<text x="827.08" y="1382" text-anchor="middle" font-family="Arial" font-size="18" fill="#334155">16</text>
<line x1="876.88" y1="1340" x2="876.88" y2="1354" stroke="#334155" stroke-width="2"/>
<text x="876.88" y="1382" text-anchor="middle" font-family="Arial" font-size="18" fill="#334155">17</text>
<line x1="926.67" y1="1340" x2="926.67" y2="1354" stroke="#334155" stroke-width="2"/>
<text x="926.67" y="1382" text-anchor="middle" font-family="Arial" font-size="18" fill="#334155">18</text>
<line x1="976.46" y1="1340" x2="976.46" y2="1354" stroke="#334155" stroke-width="2"/>
<text x="976.46" y="1382" text-anchor="middle" font-family="Arial" font-size="18" fill="#334155">19</text>
<line x1="1026.25" y1="1340" x2="1026.25" y2="1354" stroke="#334155" stroke-width="2"/>
<text x="1026.25" y="1382" text-anchor="middle" font-family="Arial" font-size="18" fill="#334155">20</text>
<line x1="1076.04" y1="1340" x2="1076.04" y2="1354" stroke="#334155" stroke-width="2"/>
<text x="1076.04" y="1382" text-anchor="middle" font-family="Arial" font-size="18" fill="#334155">21</text>
<line x1="1125.83" y1="1340" x2="1125.83" y2="1354" stroke="#334155" stroke-width="2"/>
<text x="1125.83" y="1382" text-anchor="middle" font-family="Arial" font-size="18" fill="#334155">22</text>
<line x1="1175.62" y1="1340" x2="1175.62" y2="1354" stroke="#334155" stroke-width="2"/>
<text x="1175.62" y="1382" text-anchor="middle" font-family="Arial" font-size="18" fill="#334155">23</text>
<line x1="1225.42" y1="1340" x2="1225.42" y2="1354" stroke="#334155" stroke-width="2"/>
<text x="1225.42" y="1382" text-anchor="middle" font-family="Arial" font-size="18" fill="#334155">24</text>
<line x1="1275.21" y1="1340" x2="1275.21" y2="1354" stroke="#334155" stroke-width="2"/>
<text x="1275.21" y="1382" text-anchor="middle" font-family="Arial" font-size="18" fill="#334155">25</text>
<line x1="1325.00" y1="1340" x2="1325.00" y2="1354" stroke="#334155" stroke-width="2"/>
<text x="1325.00" y="1382" text-anchor="middle" font-family="Arial" font-size="18" fill="#334155">26</text>
<line x1="1374.79" y1="1340" x2="1374.79" y2="1354" stroke="#334155" stroke-width="2"/>
<text x="1374.79" y="1382" text-anchor="middle" font-family="Arial" font-size="18" fill="#334155">27</text>
<line x1="1424.58" y1="1340" x2="1424.58" y2="1354" stroke="#334155" stroke-width="2"/>
<text x="1424.58" y="1382" text-anchor="middle" font-family="Arial" font-size="18" fill="#334155">28</text>
<line x1="1474.38" y1="1340" x2="1474.38" y2="1354" stroke="#334155" stroke-width="2"/>
<text x="1474.38" y="1382" text-anchor="middle" font-family="Arial" font-size="18" fill="#334155">29</text>
<line x1="1524.17" y1="1340" x2="1524.17" y2="1354" stroke="#334155" stroke-width="2"/>
<text x="1524.17" y="1382" text-anchor="middle" font-family="Arial" font-size="18" fill="#334155">30</text>
<line x1="1573.96" y1="1340" x2="1573.96" y2="1354" stroke="#334155" stroke-width="2"/>
<text x="1573.96" y="1382" text-anchor="middle" font-family="Arial" font-size="18" fill="#334155">31</text>
<line x1="1623.75" y1="1340" x2="1623.75" y2="1354" stroke="#334155" stroke-width="2"/>
<text x="1623.75" y="1382" text-anchor="middle" font-family="Arial" font-size="18" fill="#334155">32</text>
<line x1="1673.54" y1="1340" x2="1673.54" y2="1354" stroke="#334155" stroke-width="2"/>
<text x="1673.54" y="1382" text-anchor="middle" font-family="Arial" font-size="18" fill="#334155">33</text>
<line x1="1723.33" y1="1340" x2="1723.33" y2="1354" stroke="#334155" stroke-width="2"/>
<text x="1723.33" y="1382" text-anchor="middle" font-family="Arial" font-size="18" fill="#334155">34</text>
<line x1="1773.12" y1="1340" x2="1773.12" y2="1354" stroke="#334155" stroke-width="2"/>
<text x="1773.12" y="1382" text-anchor="middle" font-family="Arial" font-size="18" fill="#334155">35</text>
<line x1="1822.92" y1="1340" x2="1822.92" y2="1354" stroke="#334155" stroke-width="2"/>
<text x="1822.92" y="1382" text-anchor="middle" font-family="Arial" font-size="18" fill="#334155">36</text>
<line x1="1872.71" y1="1340" x2="1872.71" y2="1354" stroke="#334155" stroke-width="2"/>
<text x="1872.71" y="1382" text-anchor="middle" font-family="Arial" font-size="18" fill="#334155">37</text>
<line x1="1922.50" y1="1340" x2="1922.50" y2="1354" stroke="#334155" stroke-width="2"/>
<text x="1922.50" y="1382" text-anchor="middle" font-family="Arial" font-size="18" fill="#334155">38</text>
<line x1="1972.29" y1="1340" x2="1972.29" y2="1354" stroke="#334155" stroke-width="2"/>
<text x="1972.29" y="1382" text-anchor="middle" font-family="Arial" font-size="18" fill="#334155">39</text>
<line x1="2022.08" y1="1340" x2="2022.08" y2="1354" stroke="#334155" stroke-width="2"/>
<text x="2022.08" y="1382" text-anchor="middle" font-family="Arial" font-size="18" fill="#334155">40</text>
<line x1="2071.88" y1="1340" x2="2071.88" y2="1354" stroke="#334155" stroke-width="2"/>
<text x="2071.88" y="1382" text-anchor="middle" font-family="Arial" font-size="18" fill="#334155">41</text>
<line x1="2121.67" y1="1340" x2="2121.67" y2="1354" stroke="#334155" stroke-width="2"/>
<text x="2121.67" y="1382" text-anchor="middle" font-family="Arial" font-size="18" fill="#334155">42</text>
<line x1="2171.46" y1="1340" x2="2171.46" y2="1354" stroke="#334155" stroke-width="2"/>
<text x="2171.46" y="1382" text-anchor="middle" font-family="Arial" font-size="18" fill="#334155">43</text>
<line x1="2221.25" y1="1340" x2="2221.25" y2="1354" stroke="#334155" stroke-width="2"/>
<text x="2221.25" y="1382" text-anchor="middle" font-family="Arial" font-size="18" fill="#334155">44</text>
<line x1="2271.04" y1="1340" x2="2271.04" y2="1354" stroke="#334155" stroke-width="2"/>
<text x="2271.04" y="1382" text-anchor="middle" font-family="Arial" font-size="18" fill="#334155">45</text>
<line x1="2320.83" y1="1340" x2="2320.83" y2="1354" stroke="#334155" stroke-width="2"/>
<text x="2320.83" y="1382" text-anchor="middle" font-family="Arial" font-size="18" fill="#334155">46</text>
<line x1="2370.62" y1="1340" x2="2370.62" y2="1354" stroke="#334155" stroke-width="2"/>
<text x="2370.62" y="1382" text-anchor="middle" font-family="Arial" font-size="18" fill="#334155">47</text>
<line x1="2420.42" y1="1340" x2="2420.42" y2="1354" stroke="#334155" stroke-width="2"/>
<text x="2420.42" y="1382" text-anchor="middle" font-family="Arial" font-size="18" fill="#334155">48</text>
<line x1="2470.21" y1="1340" x2="2470.21" y2="1354" stroke="#334155" stroke-width="2"/>
<text x="2470.21" y="1382" text-anchor="middle" font-family="Arial" font-size="18" fill="#334155">49</text>
<line x1="2520.00" y1="1340" x2="2520.00" y2="1354" stroke="#334155" stroke-width="2"/>
<text x="2520.00" y="1382" text-anchor="middle" font-family="Arial" font-size="18" fill="#334155">50</text>
<line x1="118" y1="1340.00" x2="130" y2="1340.00" stroke="#334155" stroke-width="1"/>
<line x1="130" y1="1340.00" x2="2520" y2="1340.00" stroke="#cbd5e1" stroke-width="1.4"/>
<text x="112" y="1346.00" text-anchor="end" font-family="Arial" font-size="16" fill="#334155">0</text>
<line x1="124" y1="1322.29" x2="130" y2="1322.29" stroke="#334155" stroke-width="1"/>
<line x1="130" y1="1322.29" x2="2520" y2="1322.29" stroke="#e2e8f0" stroke-width="0.8"/>
<line x1="124" y1="1304.57" x2="130" y2="1304.57" stroke="#334155" stroke-width="1"/>
<line x1="130" y1="1304.57" x2="2520" y2="1304.57" stroke="#e2e8f0" stroke-width="0.8"/>
<line x1="124" y1="1286.86" x2="130" y2="1286.86" stroke="#334155" stroke-width="1"/>
<line x1="130" y1="1286.86" x2="2520" y2="1286.86" stroke="#e2e8f0" stroke-width="0.8"/>
<line x1="124" y1="1269.14" x2="130" y2="1269.14" stroke="#334155" stroke-width="1"/>
<line x1="130" y1="1269.14" x2="2520" y2="1269.14" stroke="#e2e8f0" stroke-width="0.8"/>
<line x1="118" y1="1251.43" x2="130" y2="1251.43" stroke="#334155" stroke-width="1"/>
<line x1="130" y1="1251.43" x2="2520" y2="1251.43" stroke="#cbd5e1" stroke-width="1.4"/>
<text x="112" y="1257.43" text-anchor="end" font-family="Arial" font-size="16" fill="#334155">5</text>
<line x1="124" y1="1233.71" x2="130" y2="1233.71" stroke="#334155" stroke-width="1"/>
<line x1="130" y1="1233.71" x2="2520" y2="1233.71" stroke="#e2e8f0" stroke-width="0.8"/>
<line x1="124" y1="1216.00" x2="130" y2="1216.00" stroke="#334155" stroke-width="1"/>
<line x1="130" y1="1216.00" x2="2520" y2="1216.00" stroke="#e2e8f0" stroke-width="0.8"/>
<line x1="124" y1="1198.29" x2="130" y2="1198.29" stroke="#334155" stroke-width="1"/>
<line x1="130" y1="1198.29" x2="2520" y2="1198.29" stroke="#e2e8f0" stroke-width="0.8"/>
<line x1="124" y1="1180.57" x2="130" y2="1180.57" stroke="#334155" stroke-width="1"/>
<line x1="130" y1="1180.57" x2="2520" y2="1180.57" stroke="#e2e8f0" stroke-width="0.8"/>
<line x1="118" y1="1162.86" x2="130" y2="1162.86" stroke="#334155" stroke-width="1"/>
<line x1="130" y1="1162.86" x2="2520" y2="1162.86" stroke="#cbd5e1" stroke-width="1.4"/>
<text x="112" y="1168.86" text-anchor="end" font-family="Arial" font-size="16" fill="#334155">10</text>
<line x1="124" y1="1145.14" x2="130" y2="1145.14" stroke="#334155" stroke-width="1"/>
<line x1="130" y1="1145.14" x2="2520" y2="1145.14" stroke="#e2e8f0" stroke-width="0.8"/>
<line x1="124" y1="1127.43" x2="130" y2="1127.43" stroke="#334155" stroke-width="1"/>
<line x1="130" y1="1127.43" x2="2520" y2="1127.43" stroke="#e2e8f0" stroke-width="0.8"/>
<line x1="124" y1="1109.71" x2="130" y2="1109.71" stroke="#334155" stroke-width="1"/>
<line x1="130" y1="1109.71" x2="2520" y2="1109.71" stroke="#e2e8f0" stroke-width="0.8"/>
<line x1="124" y1="1092.00" x2="130" y2="1092.00" stroke="#334155" stroke-width="1"/>
<line x1="130" y1="1092.00" x2="2520" y2="1092.00" stroke="#e2e8f0" stroke-width="0.8"/>
<line x1="118" y1="1074.29" x2="130" y2="1074.29" stroke="#334155" stroke-width="1"/>
<line x1="130" y1="1074.29" x2="2520" y2="1074.29" stroke="#cbd5e1" stroke-width="1.4"/>
<text x="112" y="1080.29" text-anchor="end" font-family="Arial" font-size="16" fill="#334155">15</text>
<line x1="124" y1="1056.57" x2="130" y2="1056.57" stroke="#334155" stroke-width="1"/>
<line x1="130" y1="1056.57" x2="2520" y2="1056.57" stroke="#e2e8f0" stroke-width="0.8"/>
<line x1="124" y1="1038.86" x2="130" y2="1038.86" stroke="#334155" stroke-width="1"/>
<line x1="130" y1="1038.86" x2="2520" y2="1038.86" stroke="#e2e8f0" stroke-width="0.8"/>
<line x1="124" y1="1021.14" x2="130" y2="1021.14" stroke="#334155" stroke-width="1"/>
<line x1="130" y1="1021.14" x2="2520" y2="1021.14" stroke="#e2e8f0" stroke-width="0.8"/>
<line x1="124" y1="1003.43" x2="130" y2="1003.43" stroke="#334155" stroke-width="1"/>
<line x1="130" y1="1003.43" x2="2520" y2="1003.43" stroke="#e2e8f0" stroke-width="0.8"/>
<line x1="118" y1="985.71" x2="130" y2="985.71" stroke="#334155" stroke-width="1"/>
<line x1="130" y1="985.71" x2="2520" y2="985.71" stroke="#cbd5e1" stroke-width="1.4"/>
<text x="112" y="991.71" text-anchor="end" font-family="Arial" font-size="16" fill="#334155">20</text>
<line x1="124" y1="968.00" x2="130" y2="968.00" stroke="#334155" stroke-width="1"/>
<line x1="130" y1="968.00" x2="2520" y2="968.00" stroke="#e2e8f0" stroke-width="0.8"/>
<line x1="124" y1="950.29" x2="130" y2="950.29" stroke="#334155" stroke-width="1"/>
<line x1="130" y1="950.29" x2="2520" y2="950.29" stroke="#e2e8f0" stroke-width="0.8"/>
<line x1="124" y1="932.57" x2="130" y2="932.57" stroke="#334155" stroke-width="1"/>
<line x1="130" y1="932.57" x2="2520" y2="932.57" stroke="#e2e8f0" stroke-width="0.8"/>
<line x1="124" y1="914.86" x2="130" y2="914.86" stroke="#334155" stroke-width="1"/>
<line x1="130" y1="914.86" x2="2520" y2="914.86" stroke="#e2e8f0" stroke-width="0.8"/>
<line x1="118" y1="897.14" x2="130" y2="897.14" stroke="#334155" stroke-width="1"/>
<line x1="130" y1="897.14" x2="2520" y2="897.14" stroke="#cbd5e1" stroke-width="1.4"/>
<text x="112" y="903.14" text-anchor="end" font-family="Arial" font-size="16" fill="#334155">25</text>
<line x1="124" y1="879.43" x2="130" y2="879.43" stroke="#334155" stroke-width="1"/>
<line x1="130" y1="879.43" x2="2520" y2="879.43" stroke="#e2e8f0" stroke-width="0.8"/>
<line x1="124" y1="861.71" x2="130" y2="861.71" stroke="#334155" stroke-width="1"/>
<line x1="130" y1="861.71" x2="2520" y2="861.71" stroke="#e2e8f0" stroke-width="0.8"/>
<line x1="124" y1="844.00" x2="130" y2="844.00" stroke="#334155" stroke-width="1"/>
<line x1="130" y1="844.00" x2="2520" y2="844.00" stroke="#e2e8f0" stroke-width="0.8"/>
<line x1="124" y1="826.29" x2="130" y2="826.29" stroke="#334155" stroke-width="1"/>
<line x1="130" y1="826.29" x2="2520" y2="826.29" stroke="#e2e8f0" stroke-width="0.8"/>
<line x1="118" y1="808.57" x2="130" y2="808.57" stroke="#334155" stroke-width="1"/>
<line x1="130" y1="808.57" x2="2520" y2="808.57" stroke="#cbd5e1" stroke-width="1.4"/>
<text x="112" y="814.57" text-anchor="end" font-family="Arial" font-size="16" fill="#334155">30</text>
<line x1="124" y1="790.86" x2="130" y2="790.86" stroke="#334155" stroke-width="1"/>
<line x1="130" y1="790.86" x2="2520" y2="790.86" stroke="#e2e8f0" stroke-width="0.8"/>
<line x1="124" y1="773.14" x2="130" y2="773.14" stroke="#334155" stroke-width="1"/>
<line x1="130" y1="773.14" x2="2520" y2="773.14" stroke="#e2e8f0" stroke-width="0.8"/>
<line x1="124" y1="755.43" x2="130" y2="755.43" stroke="#334155" stroke-width="1"/>
<line x1="130" y1="755.43" x2="2520" y2="755.43" stroke="#e2e8f0" stroke-width="0.8"/>
<line x1="124" y1="737.71" x2="130" y2="737.71" stroke="#334155" stroke-width="1"/>
<line x1="130" y1="737.71" x2="2520" y2="737.71" stroke="#e2e8f0" stroke-width="0.8"/>
<line x1="118" y1="720.00" x2="130" y2="720.00" stroke="#334155" stroke-width="1"/>
<line x1="130" y1="720.00" x2="2520" y2="720.00" stroke="#cbd5e1" stroke-width="1.4"/>
<text x="112" y="726.00" text-anchor="end" font-family="Arial" font-size="16" fill="#334155">35</text>
<line x1="124" y1="702.29" x2="130" y2="702.29" stroke="#334155" stroke-width="1"/>
<line x1="130" y1="702.29" x2="2520" y2="702.29" stroke="#e2e8f0" stroke-width="0.8"/>
<line x1="124" y1="684.57" x2="130" y2="684.57" stroke="#334155" stroke-width="1"/>
<line x1="130" y1="684.57" x2="2520" y2="684.57" stroke="#e2e8f0" stroke-width="0.8"/>
<line x1="124" y1="666.86" x2="130" y2="666.86" stroke="#334155" stroke-width="1"/>
<line x1="130" y1="666.86" x2="2520" y2="666.86" stroke="#e2e8f0" stroke-width="0.8"/>
<line x1="124" y1="649.14" x2="130" y2="649.14" stroke="#334155" stroke-width="1"/>
<line x1="130" y1="649.14" x2="2520" y2="649.14" stroke="#e2e8f0" stroke-width="0.8"/>
<line x1="118" y1="631.43" x2="130" y2="631.43" stroke="#334155" stroke-width="1"/>
<line x1="130" y1="631.43" x2="2520" y2="631.43" stroke="#cbd5e1" stroke-width="1.4"/>
<text x="112" y="637.43" text-anchor="end" font-family="Arial" font-size="16" fill="#334155">40</text>
<line x1="124" y1="613.71" x2="130" y2="613.71" stroke="#334155" stroke-width="1"/>
<line x1="130" y1="613.71" x2="2520" y2="613.71" stroke="#e2e8f0" stroke-width="0.8"/>
<line x1="124" y1="596.00" x2="130" y2="596.00" stroke="#334155" stroke-width="1"/>
<line x1="130" y1="596.00" x2="2520" y2="596.00" stroke="#e2e8f0" stroke-width="0.8"/>
<line x1="124" y1="578.29" x2="130" y2="578.29" stroke="#334155" stroke-width="1"/>
<line x1="130" y1="578.29" x2="2520" y2="578.29" stroke="#e2e8f0" stroke-width="0.8"/>
<line x1="124" y1="560.57" x2="130" y2="560.57" stroke="#334155" stroke-width="1"/>
<line x1="130" y1="560.57" x2="2520" y2="560.57" stroke="#e2e8f0" stroke-width="0.8"/>
<line x1="118" y1="542.86" x2="130" y2="542.86" stroke="#334155" stroke-width="1"/>
<line x1="130" y1="542.86" x2="2520" y2="542.86" stroke="#cbd5e1" stroke-width="1.4"/>
<text x="112" y="548.86" text-anchor="end" font-family="Arial" font-size="16" fill="#334155">45</text>
<line x1="124" y1="525.14" x2="130" y2="525.14" stroke="#334155" stroke-width="1"/>
<line x1="130" y1="525.14" x2="2520" y2="525.14" stroke="#e2e8f0" stroke-width="0.8"/>
<line x1="124" y1="507.43" x2="130" y2="507.43" stroke="#334155" stroke-width="1"/>
<line x1="130" y1="507.43" x2="2520" y2="507.43" stroke="#e2e8f0" stroke-width="0.8"/>
<line x1="124" y1="489.71" x2="130" y2="489.71" stroke="#334155" stroke-width="1"/>
<line x1="130" y1="489.71" x2="2520" y2="489.71" stroke="#e2e8f0" stroke-width="0.8"/>
<line x1="124" y1="472.00" x2="130" y2="472.00" stroke="#334155" stroke-width="1"/>
<line x1="130" y1="472.00" x2="2520" y2="472.00" stroke="#e2e8f0" stroke-width="0.8"/>
<line x1="118" y1="454.29" x2="130" y2="454.29" stroke="#334155" stroke-width="1"/>
<line x1="130" y1="454.29" x2="2520" y2="454.29" stroke="#cbd5e1" stroke-width="1.4"/>
<text x="112" y="460.29" text-anchor="end" font-family="Arial" font-size="16" fill="#334155">50</text>
<line x1="124" y1="436.57" x2="130" y2="436.57" stroke="#334155" stroke-width="1"/>
<line x1="130" y1="436.57" x2="2520" y2="436.57" stroke="#e2e8f0" stroke-width="0.8"/>
<line x1="124" y1="418.86" x2="130" y2="418.86" stroke="#334155" stroke-width="1"/>
<line x1="130" y1="418.86" x2="2520" y2="418.86" stroke="#e2e8f0" stroke-width="0.8"/>
<line x1="124" y1="401.14" x2="130" y2="401.14" stroke="#334155" stroke-width="1"/>
<line x1="130" y1="401.14" x2="2520" y2="401.14" stroke="#e2e8f0" stroke-width="0.8"/>
<line x1="124" y1="383.43" x2="130" y2="383.43" stroke="#334155" stroke-width="1"/>
<line x1="130" y1="383.43" x2="2520" y2="383.43" stroke="#e2e8f0" stroke-width="0.8"/>
<line x1="118" y1="365.71" x2="130" y2="365.71" stroke="#334155" stroke-width="1"/>
<line x1="130" y1="365.71" x2="2520" y2="365.71" stroke="#cbd5e1" stroke-width="1.4"/>
<text x="112" y="371.71" text-anchor="end" font-family="Arial" font-size="16" fill="#334155">55</text>
<line x1="124" y1="348.00" x2="130" y2="348.00" stroke="#334155" stroke-width="1"/>
<line x1="130" y1="348.00" x2="2520" y2="348.00" stroke="#e2e8f0" stroke-width="0.8"/>
<line x1="124" y1="330.29" x2="130" y2="330.29" stroke="#334155" stroke-width="1"/>
<line x1="130" y1="330.29" x2="2520" y2="330.29" stroke="#e2e8f0" stroke-width="0.8"/>
<line x1="124" y1="312.57" x2="130" y2="312.57" stroke="#334155" stroke-width="1"/>
<line x1="130" y1="312.57" x2="2520" y2="312.57" stroke="#e2e8f0" stroke-width="0.8"/>
<line x1="124" y1="294.86" x2="130" y2="294.86" stroke="#334155" stroke-width="1"/>
<line x1="130" y1="294.86" x2="2520" y2="294.86" stroke="#e2e8f0" stroke-width="0.8"/>
<line x1="118" y1="277.14" x2="130" y2="277.14" stroke="#334155" stroke-width="1"/>
<line x1="130" y1="277.14" x2="2520" y2="277.14" stroke="#cbd5e1" stroke-width="1.4"/>
<text x="112" y="283.14" text-anchor="end" font-family="Arial" font-size="16" fill="#334155">60</text>
<line x1="124" y1="259.43" x2="130" y2="259.43" stroke="#334155" stroke-width="1"/>
<line x1="130" y1="259.43" x2="2520" y2="259.43" stroke="#e2e8f0" stroke-width="0.8"/>
<line x1="124" y1="241.71" x2="130" y2="241.71" stroke="#334155" stroke-width="1"/>
<line x1="130" y1="241.71" x2="2520" y2="241.71" stroke="#e2e8f0" stroke-width="0.8"/>
<line x1="124" y1="224.00" x2="130" y2="224.00" stroke="#334155" stroke-width="1"/>
<line x1="130" y1="224.00" x2="2520" y2="224.00" stroke="#e2e8f0" stroke-width="0.8"/>
<line x1="124" y1="206.29" x2="130" y2="206.29" stroke="#334155" stroke-width="1"/>
<line x1="130" y1="206.29" x2="2520" y2="206.29" stroke="#e2e8f0" stroke-width="0.8"/>
<line x1="118" y1="188.57" x2="130" y2="188.57" stroke="#334155" stroke-width="1"/>
<line x1="130" y1="188.57" x2="2520" y2="188.57" stroke="#cbd5e1" stroke-width="1.4"/>
<text x="112" y="194.57" text-anchor="end" font-family="Arial" font-size="16" fill="#334155">65</text>
<line x1="124" y1="170.86" x2="130" y2="170.86" stroke="#334155" stroke-width="1"/>
<line x1="130" y1="170.86" x2="2520" y2="170.86" stroke="#e2e8f0" stroke-width="0.8"/>
<line x1="124" y1="153.14" x2="130" y2="153.14" stroke="#334155" stroke-width="1"/>
<line x1="130" y1="153.14" x2="2520" y2="153.14" stroke="#e2e8f0" stroke-width="0.8"/>
<line x1="124" y1="135.43" x2="130" y2="135.43" stroke="#334155" stroke-width="1"/>
<line x1="130" y1="135.43" x2="2520" y2="135.43" stroke="#e2e8f0" stroke-width="0.8"/>
<line x1="124" y1="117.71" x2="130" y2="117.71" stroke="#334155" stroke-width="1"/>
<line x1="130" y1="117.71" x2="2520" y2="117.71" stroke="#e2e8f0" stroke-width="0.8"/>
<line x1="118" y1="100.00" x2="130" y2="100.00" stroke="#334155" stroke-width="1"/>
<line x1="130" y1="100.00" x2="2520" y2="100.00" stroke="#cbd5e1" stroke-width="1.4"/>
<text x="112" y="106.00" text-anchor="end" font-family="Arial" font-size="16" fill="#334155">70</text>
<polyline points="130.00,1339.82 179.79,1339.65 229.58,1339.47 279.38,1339.47 329.17,1340.00 378.96,1339.65 428.75,1339.82 478.54,1339.65 528.33,1339.65 578.12,1339.11 627.92,1338.76 677.71,1338.41 727.50,1334.69 777.29,1335.39 827.08,1336.81 876.88,1334.69 926.67,1328.84 976.46,1332.56 1026.25,1328.13 1076.04,1331.14 1125.83,1331.14 1175.62,1321.93 1225.42,1296.95 1275.21,1313.43 1325.00,1324.06 1374.79,1303.15 1424.58,1234.95 1474.38,1281.37 1524.17,1209.09 1573.96,100.00 1623.75,1215.47 1673.54,1097.67 1723.33,1248.59 1773.12,1179.86 1822.92,1049.31 1872.71,100.00 1922.50,1040.45 1972.29,769.07 2022.08,100.00 2071.88,938.42 2121.67,100.00 2171.46,100.00 2221.25,100.00 2271.04,100.00 2320.83,100.00 2370.62,100.00 2420.42,100.00 2470.21,100.00 2520.00,100.00" fill="none" stroke="#2563eb" stroke-width="3"/>
<circle cx="130.00" cy="1339.82" r="6" fill="#1d4ed8"/>
<text x="130.00" y="1325.82" text-anchor="middle" font-family="Arial" font-size="14" fill="#1e293b">0.01s</text>
<circle cx="179.79" cy="1339.65" r="6" fill="#1d4ed8"/>
<text x="179.79" y="1325.65" text-anchor="middle" font-family="Arial" font-size="14" fill="#1e293b">0.02s</text>
<circle cx="229.58" cy="1339.47" r="6" fill="#1d4ed8"/>
<text x="229.58" y="1325.47" text-anchor="middle" font-family="Arial" font-size="14" fill="#1e293b">0.03s</text>
<circle cx="279.38" cy="1339.47" r="6" fill="#1d4ed8"/>
<text x="279.38" y="1325.47" text-anchor="middle" font-family="Arial" font-size="14" fill="#1e293b">0.03s</text>
<circle cx="329.17" cy="1340.00" r="6" fill="#1d4ed8"/>
<text x="329.17" y="1326.00" text-anchor="middle" font-family="Arial" font-size="14" fill="#1e293b">0.00s</text>
<circle cx="378.96" cy="1339.65" r="6" fill="#1d4ed8"/>
<text x="378.96" y="1325.65" text-anchor="middle" font-family="Arial" font-size="14" fill="#1e293b">0.02s</text>
<circle cx="428.75" cy="1339.82" r="6" fill="#1d4ed8"/>
<text x="428.75" y="1325.82" text-anchor="middle" font-family="Arial" font-size="14" fill="#1e293b">0.01s</text>
<circle cx="478.54" cy="1339.65" r="6" fill="#1d4ed8"/>
<text x="478.54" y="1325.65" text-anchor="middle" font-family="Arial" font-size="14" fill="#1e293b">0.02s</text>
<circle cx="528.33" cy="1339.65" r="6" fill="#1d4ed8"/>
<text x="528.33" y="1325.65" text-anchor="middle" font-family="Arial" font-size="14" fill="#1e293b">0.02s</text>
<circle cx="578.12" cy="1339.11" r="6" fill="#1d4ed8"/>
<text x="578.12" y="1325.11" text-anchor="middle" font-family="Arial" font-size="14" fill="#1e293b">0.05s</text>
<circle cx="627.92" cy="1338.76" r="6" fill="#1d4ed8"/>
<text x="627.92" y="1324.76" text-anchor="middle" font-family="Arial" font-size="14" fill="#1e293b">0.07s</text>
<circle cx="677.71" cy="1338.41" r="6" fill="#1d4ed8"/>
<text x="677.71" y="1324.41" text-anchor="middle" font-family="Arial" font-size="14" fill="#1e293b">0.09s</text>
<circle cx="727.50" cy="1334.69" r="6" fill="#1d4ed8"/>
<text x="727.50" y="1320.69" text-anchor="middle" font-family="Arial" font-size="14" fill="#1e293b">0.30s</text>
<circle cx="777.29" cy="1335.39" r="6" fill="#1d4ed8"/>
<text x="777.29" y="1321.39" text-anchor="middle" font-family="Arial" font-size="14" fill="#1e293b">0.26s</text>
<circle cx="827.08" cy="1336.81" r="6" fill="#1d4ed8"/>
<text x="827.08" y="1322.81" text-anchor="middle" font-family="Arial" font-size="14" fill="#1e293b">0.18s</text>
<circle cx="876.88" cy="1334.69" r="6" fill="#1d4ed8"/>
<text x="876.88" y="1320.69" text-anchor="middle" font-family="Arial" font-size="14" fill="#1e293b">0.30s</text>
<circle cx="926.67" cy="1328.84" r="6" fill="#1d4ed8"/>
<text x="926.67" y="1314.84" text-anchor="middle" font-family="Arial" font-size="14" fill="#1e293b">0.63s</text>
<circle cx="976.46" cy="1332.56" r="6" fill="#1d4ed8"/>
<text x="976.46" y="1318.56" text-anchor="middle" font-family="Arial" font-size="14" fill="#1e293b">0.42s</text>
<circle cx="1026.25" cy="1328.13" r="6" fill="#1d4ed8"/>
<text x="1026.25" y="1314.13" text-anchor="middle" font-family="Arial" font-size="14" fill="#1e293b">0.67s</text>
<circle cx="1076.04" cy="1331.14" r="6" fill="#1d4ed8"/>
<text x="1076.04" y="1317.14" text-anchor="middle" font-family="Arial" font-size="14" fill="#1e293b">0.50s</text>
<circle cx="1125.83" cy="1331.14" r="6" fill="#1d4ed8"/>
<text x="1125.83" y="1317.14" text-anchor="middle" font-family="Arial" font-size="14" fill="#1e293b">0.50s</text>
<circle cx="1175.62" cy="1321.93" r="6" fill="#1d4ed8"/>
<text x="1175.62" y="1307.93" text-anchor="middle" font-family="Arial" font-size="14" fill="#1e293b">1.02s</text>
<circle cx="1225.42" cy="1296.95" r="6" fill="#1d4ed8"/>
<text x="1225.42" y="1282.95" text-anchor="middle" font-family="Arial" font-size="14" fill="#1e293b">2.43s</text>
<circle cx="1275.21" cy="1313.43" r="6" fill="#1d4ed8"/>
<text x="1275.21" y="1299.43" text-anchor="middle" font-family="Arial" font-size="14" fill="#1e293b">1.50s</text>
<circle cx="1325.00" cy="1324.06" r="6" fill="#1d4ed8"/>
<text x="1325.00" y="1310.06" text-anchor="middle" font-family="Arial" font-size="14" fill="#1e293b">0.90s</text>
<circle cx="1374.79" cy="1303.15" r="6" fill="#1d4ed8"/>
<text x="1374.79" y="1289.15" text-anchor="middle" font-family="Arial" font-size="14" fill="#1e293b">2.08s</text>
<circle cx="1424.58" cy="1234.95" r="6" fill="#1d4ed8"/>
<text x="1424.58" y="1220.95" text-anchor="middle" font-family="Arial" font-size="14" fill="#1e293b">5.93s</text>
<circle cx="1474.38" cy="1281.37" r="6" fill="#1d4ed8"/>
<text x="1474.38" y="1267.37" text-anchor="middle" font-family="Arial" font-size="14" fill="#1e293b">3.31s</text>
<circle cx="1524.17" cy="1209.09" r="6" fill="#1d4ed8"/>
<text x="1524.17" y="1195.09" text-anchor="middle" font-family="Arial" font-size="14" fill="#1e293b">7.39s</text>
<line x1="1566.96" y1="93.00" x2="1580.96" y2="107.00" stroke="#b91c1c" stroke-width="3"/>
<line x1="1566.96" y1="107.00" x2="1580.96" y2="93.00" stroke="#b91c1c" stroke-width="3"/>
<text x="1573.96" y="86.00" text-anchor="middle" font-family="Arial" font-size="14" fill="#991b1b">timeout</text>
<circle cx="1623.75" cy="1215.47" r="6" fill="#1d4ed8"/>
<text x="1623.75" y="1201.47" text-anchor="middle" font-family="Arial" font-size="14" fill="#1e293b">7.03s</text>
<circle cx="1673.54" cy="1097.67" r="6" fill="#1d4ed8"/>
<text x="1673.54" y="1083.67" text-anchor="middle" font-family="Arial" font-size="14" fill="#1e293b">13.68s</text>
<circle cx="1723.33" cy="1248.59" r="6" fill="#1d4ed8"/>
<text x="1723.33" y="1234.59" text-anchor="middle" font-family="Arial" font-size="14" fill="#1e293b">5.16s</text>
<circle cx="1773.12" cy="1179.86" r="6" fill="#1d4ed8"/>
<text x="1773.12" y="1165.86" text-anchor="middle" font-family="Arial" font-size="14" fill="#1e293b">9.04s</text>
<circle cx="1822.92" cy="1049.31" r="6" fill="#1d4ed8"/>
<text x="1822.92" y="1035.31" text-anchor="middle" font-family="Arial" font-size="14" fill="#1e293b">16.41s</text>
<line x1="1865.71" y1="93.00" x2="1879.71" y2="107.00" stroke="#b91c1c" stroke-width="3"/>
<line x1="1865.71" y1="107.00" x2="1879.71" y2="93.00" stroke="#b91c1c" stroke-width="3"/>
<text x="1872.71" y="86.00" text-anchor="middle" font-family="Arial" font-size="14" fill="#991b1b">timeout</text>
<circle cx="1922.50" cy="1040.45" r="6" fill="#1d4ed8"/>
<text x="1922.50" y="1026.45" text-anchor="middle" font-family="Arial" font-size="14" fill="#1e293b">16.91s</text>
<circle cx="1972.29" cy="769.07" r="6" fill="#1d4ed8"/>
<text x="1972.29" y="755.07" text-anchor="middle" font-family="Arial" font-size="14" fill="#1e293b">32.23s</text>
<line x1="2015.08" y1="93.00" x2="2029.08" y2="107.00" stroke="#b91c1c" stroke-width="3"/>
<line x1="2015.08" y1="107.00" x2="2029.08" y2="93.00" stroke="#b91c1c" stroke-width="3"/>
<text x="2022.08" y="86.00" text-anchor="middle" font-family="Arial" font-size="14" fill="#991b1b">timeout</text>
<circle cx="2071.88" cy="938.42" r="6" fill="#1d4ed8"/>
<text x="2071.88" y="924.42" text-anchor="middle" font-family="Arial" font-size="14" fill="#1e293b">22.67s</text>
<line x1="2114.67" y1="93.00" x2="2128.67" y2="107.00" stroke="#b91c1c" stroke-width="3"/>
<line x1="2114.67" y1="107.00" x2="2128.67" y2="93.00" stroke="#b91c1c" stroke-width="3"/>
<text x="2121.67" y="86.00" text-anchor="middle" font-family="Arial" font-size="14" fill="#991b1b">timeout</text>
<line x1="2164.46" y1="93.00" x2="2178.46" y2="107.00" stroke="#b91c1c" stroke-width="3"/>
<line x1="2164.46" y1="107.00" x2="2178.46" y2="93.00" stroke="#b91c1c" stroke-width="3"/>
<text x="2171.46" y="86.00" text-anchor="middle" font-family="Arial" font-size="14" fill="#991b1b">timeout</text>
<line x1="2214.25" y1="93.00" x2="2228.25" y2="107.00" stroke="#b91c1c" stroke-width="3"/>
<line x1="2214.25" y1="107.00" x2="2228.25" y2="93.00" stroke="#b91c1c" stroke-width="3"/>
<text x="2221.25" y="86.00" text-anchor="middle" font-family="Arial" font-size="14" fill="#991b1b">timeout</text>
<line x1="2264.04" y1="93.00" x2="2278.04" y2="107.00" stroke="#b91c1c" stroke-width="3"/>
<line x1="2264.04" y1="107.00" x2="2278.04" y2="93.00" stroke="#b91c1c" stroke-width="3"/>
<text x="2271.04" y="86.00" text-anchor="middle" font-family="Arial" font-size="14" fill="#991b1b">timeout</text>
<line x1="2313.83" y1="93.00" x2="2327.83" y2="107.00" stroke="#b91c1c" stroke-width="3"/>
<line x1="2313.83" y1="107.00" x2="2327.83" y2="93.00" stroke="#b91c1c" stroke-width="3"/>
<text x="2320.83" y="86.00" text-anchor="middle" font-family="Arial" font-size="14" fill="#991b1b">timeout</text>
<line x1="2363.62" y1="93.00" x2="2377.62" y2="107.00" stroke="#b91c1c" stroke-width="3"/>
<line x1="2363.62" y1="107.00" x2="2377.62" y2="93.00" stroke="#b91c1c" stroke-width="3"/>
<text x="2370.62" y="86.00" text-anchor="middle" font-family="Arial" font-size="14" fill="#991b1b">timeout</text>
<line x1="2413.42" y1="93.00" x2="2427.42" y2="107.00" stroke="#b91c1c" stroke-width="3"/>
<line x1="2413.42" y1="107.00" x2="2427.42" y2="93.00" stroke="#b91c1c" stroke-width="3"/>
<text x="2420.42" y="86.00" text-anchor="middle" font-family="Arial" font-size="14" fill="#991b1b">timeout</text>
<line x1="2463.21" y1="93.00" x2="2477.21" y2="107.00" stroke="#b91c1c" stroke-width="3"/>
<line x1="2463.21" y1="107.00" x2="2477.21" y2="93.00" stroke="#b91c1c" stroke-width="3"/>
<text x="2470.21" y="86.00" text-anchor="middle" font-family="Arial" font-size="14" fill="#991b1b">timeout</text>
<line x1="2513.00" y1="93.00" x2="2527.00" y2="107.00" stroke="#b91c1c" stroke-width="3"/>
<line x1="2513.00" y1="107.00" x2="2527.00" y2="93.00" stroke="#b91c1c" stroke-width="3"/>
<text x="2520.00" y="86.00" text-anchor="middle" font-family="Arial" font-size="14" fill="#991b1b">timeout</text>
<text x="1325.00" y="1440" text-anchor="middle" font-family="Arial" font-size="24" fill="#0f172a">Complexity (l=p=c=g)</text>
<text x="42" y="720.00" text-anchor="middle" font-family="Arial" font-size="24" fill="#0f172a" transform="rotate(-90,42,720.00)">Time (seconds)</text>
</svg>