<svg xmlns="http://www.w3.org/2000/svg" width="2600" height="1500">
<rect x="0" y="0" width="100%" height="100%" fill="#f8fafc"/>
<text x="130" y="52" font-family="Arial" font-size="34" fill="#0f172a">FF Benchmark (Complexity vs Time)</text>
<text x="130" y="84" font-family="Arial" font-size="20" fill="#334155">Complexity = l=p=c=g. Unsolved instances are shown at timeout line.</text>
<line x1="130" y1="1340" x2="2520" y2="1340" stroke="#334155" stroke-width="3"/>
<line x1="130" y1="1340" x2="130" y2="100" stroke="#334155" stroke-width="3"/>
<line x1="130.00" y1="1340" x2="130.00" y2="1354" stroke="#334155" stroke-width="2"/>
<text x="130.00" y="1382" text-anchor="middle" font-family="Arial" font-size="18" fill="#334155">2</text>
<line x1="255.79" y1="1340" x2="255.79" y2="1354" stroke="#334155" stroke-width="2"/>
<text x="255.79" y="1382" text-anchor="middle" font-family="Arial" font-size="18" fill="#334155">4</text>
<line x1="381.58" y1="1340" x2="381.58" y2="1354" stroke="#334155" stroke-width="2"/>
<text x="381.58" y="1382" text-anchor="middle" font-family="Arial" font-size="18" fill="#334155">6</text>
<line x1="507.37" y1="1340" x2="507.37" y2="1354" stroke="#334155" stroke-width="2"/>
<text x="507.37" y="1382" text-anchor="middle" font-family="Arial" font-size="18" fill="#334155">8</text>
<line x1="633.16" y1="1340" x2="633.16" y2="1354" stroke="#334155" stroke-width="2"/>
<text x="633.16" y="1382" text-anchor="middle" font-family="Arial" font-size="18" fill="#334155">10</text>
<line x1="758.95" y1="1340" x2="758.95" y2="1354" stroke="#334155" stroke-width="2"/>
<text x="758.95" y="1382" text-anchor="middle" font-family="Arial" font-size="18" fill="#334155">12</text>
<line x1="884.74" y1="1340" x2="884.74" y2="1354" stroke="#334155" stroke-width="2"/>
<text x="884.74" y="1382" text-anchor="middle" font-family="Arial" font-size="18" fill="#334155">14</text>
<line x1="1010.53" y1="1340" x2="1010.53" y2="1354" stroke="#334155" stroke-width="2"/>
<text x="1010.53" y="1382" text-anchor="middle" font-family="Arial" font-size="18" fill="#334155">16</text>
<line x1="1136.32" y1="1340" x2="1136.32" y2="1354" stroke="#334155" stroke-width="2"/>
<text x="1136.32" y="1382" text-anchor="middle" font-family="Arial" font-size="18" fill="#334155">18</text>
<line x1="1262.11" y1="1340" x2="1262.11" y2="1354" stroke="#334155" stroke-width="2"/>
<text x="1262.11" y="1382" text-anchor="middle" font-family="Arial" font-size="18" fill="#334155">20</text>
<line x1="1387.89" y1="1340" x2="1387.89" y2="1354" stroke="#334155" stroke-width="2"/>
<text x="1387.89" y="1382" text-anchor="middle" font-family="Arial" font-size="18" fill="#334155">22</text>
<line x1="1513.68" y1="1340" x2="1513.68" y2="1354" stroke="#334155" stroke-width="2"/>
<text x="1513.68" y="1382" text-anchor="middle" font-family="Arial" font-size="18" fill="#334155">24</text>
<line x1="1639.47" y1="1340" x2="1639.47" y2="1354" stroke="#334155" stroke-width="2"/>
<text x="1639.47" y="1382" text-anchor="middle" font-family="Arial" font-size="18" fill="#334155">26</text>
<line x1="1765.26" y1="1340" x2="1765.26" y2="1354" stroke="#334155" stroke-width="2"/>
<text x="1765.26" y="1382" text-anchor="middle" font-family="Arial" font-size="18" fill="#334155">28</text>
<line x1="1891.05" y1="1340" x2="1891.05" y2="1354" stroke="#334155" stroke-width="2"/>
<text x="1891.05" y="1382" text-anchor="middle" font-family="Arial" font-size="18" fill="#334155">30</text>
<line x1="2016.84" y1="1340" x2="2016.84" y2="1354" stroke="#334155" stroke-width="2"/>
<text x="2016.84" y="1382" text-anchor="middle" font-family="Arial" font-size="18" fill="#334155">32</text>
<line x1="2142.63" y1="1340" x2="2142.63" y2="1354" stroke="#334155" stroke-width="2"/>
<text x="2142.63" y="1382" text-anchor="middle" font-family="Arial" font-size="18" fill="#334155">34</text>
<line x1="2268.42" y1="1340" x2="2268.42" y2="1354" stroke="#334155" stroke-width="2"/>
<text x="2268.42" y="1382" text-anchor="middle" font-family="Arial" font-size="18" fill="#334155">36</text>
<line x1="2394.21" y1="1340" x2="2394.21" y2="1354" stroke="#334155" stroke-width="2"/>
<text x="2394.21" y="1382" text-anchor="middle" font-family="Arial" font-size="18" fill="#334155">38</text>
<line x1="2520.00" y1="1340" x2="2520.00" y2="1354" stroke="#334155" stroke-width="2"/>
<text x="2520.00" y="1382" text-anchor="middle" font-family="Arial" font-size="18" fill="#334155">40</text>
<line x1="118" y1="1340.00" x2="130" y2="1340.00" stroke="#334155" stroke-width="1"/>
<line x1="130" y1="1340.00" x2="2520" y2="1340.00" stroke="#cbd5e1" stroke-width="1.4"/>
<text x="112" y="1346.00" text-anchor="end" font-family="Arial" font-size="16" fill="#334155">0</text>
<line x1="124" y1="1329.67" x2="130" y2="1329.67" stroke="#334155" stroke-width="1"/>
<line x1="130" y1="1329.67" x2="2520" y2="1329.67" stroke="#e2e8f0" stroke-width="0.8"/>
<line x1="124" y1="1319.33" x2="130" y2="1319.33" stroke="#334155" stroke-width="1"/>
<line x1="130" y1="1319.33" x2="2520" y2="1319.33" stroke="#e2e8f0" stroke-width="0.8"/>
<line x1="124" y1="1309.00" x2="130" y2="1309.00" stroke="#334155" stroke-width="1"/>
<line x1="130" y1="1309.00" x2="2520" y2="1309.00" stroke="#e2e8f0" stroke-width="0.8"/>
<line x1="124" y1="1298.67" x2="130" y2="1298.67" stroke="#334155" stroke-width="1"/>
<line x1="130" y1="1298.67" x2="2520" y2="1298.67" stroke="#e2e8f0" stroke-width="0.8"/>
<line x1="118" y1="1288.33" x2="130" y2="1288.33" stroke="#334155" stroke-width="1"/>
<line x1="130" y1="1288.33" x2="2520" y2="1288.33" stroke="#cbd5e1" stroke-width="1.4"/>
<text x="112" y="1294.33" text-anchor="end" font-family="Arial" font-size="16" fill="#334155">5</text>
<line x1="124" y1="1278.00" x2="130" y2="1278.00" stroke="#334155" stroke-width="1"/>
<line x1="130" y1="1278.00" x2="2520" y2="1278.00" stroke="#e2e8f0" stroke-width="0.8"/>
<line x1="124" y1="1267.67" x2="130" y2="1267.67" stroke="#334155" stroke-width="1"/>
<line x1="130" y1="1267.67" x2="2520" y2="1267.67" stroke="#e2e8f0" stroke-width="0.8"/>
<line x1="124" y1="1257.33" x2="130" y2="1257.33" stroke="#334155" stroke-width="1"/>
<line x1="130" y1="1257.33" x2="2520" y2="1257.33" stroke="#e2e8f0" stroke-width="0.8"/>
<line x1="124" y1="1247.00" x2="130" y2="1247.00" stroke="#334155" stroke-width="1"/>
<line x1="130" y1="1247.00" x2="2520" y2="1247.00" stroke="#e2e8f0" stroke-width="0.8"/>
<line x1="118" y1="1236.67" x2="130" y2="1236.67" stroke="#334155" stroke-width="1"/>
<line x1="130" y1="1236.67" x2="2520" y2="1236.67" stroke="#cbd5e1" stroke-width="1.4"/>
<text x="112" y="1242.67" text-anchor="end" font-family="Arial" font-size="16" fill="#334155">10</text>
<line x1="124" y1="1226.33" x2="130" y2="1226.33" stroke="#334155" stroke-width="1"/>
<line x1="130" y1="1226.33" x2="2520" y2="1226.33" stroke="#e2e8f0" stroke-width="0.8"/>
<line x1="124" y1="1216.00" x2="130" y2="1216.00" stroke="#334155" stroke-width="1"/>
<line x1="130" y1="1216.00" x2="2520" y2="1216.00" stroke="#e2e8f0" stroke-width="0.8"/>
<line x1="124" y1="1205.67" x2="130" y2="1205.67" stroke="#334155" stroke-width="1"/>
<line x1="130" y1="1205.67" x2="2520" y2="1205.67" stroke="#e2e8f0" stroke-width="0.8"/>
<line x1="124" y1="1195.33" x2="130" y2="1195.33" stroke="#334155" stroke-width="1"/>
<line x1="130" y1="1195.33" x2="2520" y2="1195.33" stroke="#e2e8f0" stroke-width="0.8"/>
<line x1="118" y1="1185.00" x2="130" y2="1185.00" stroke="#334155" stroke-width="1"/>
<line x1="130" y1="1185.00" x2="2520" y2="1185.00" stroke="#cbd5e1" stroke-width="1.4"/>
<text x="112" y="1191.00" text-anchor="end" font-family="Arial" font-size="16" fill="#334155">15</text>
<line x1="124" y1="1174.67" x2="130" y2="1174.67" stroke="#334155" stroke-width="1"/>
<line x1="130" y1="1174.67" x2="2520" y2="1174.67" stroke="#e2e8f0" stroke-width="0.8"/>
<line x1="124" y1="1164.33" x2="130" y2="1164.33" stroke="#334155" stroke-width="1"/>
<line x1="130" y1="1164.33" x2="2520" y2="1164.33" stroke="#e2e8f0" stroke-width="0.8"/>
<line x1="124" y1="1154.00" x2="130" y2="1154.00" stroke="#334155" stroke-width="1"/>
<line x1="130" y1="1154.00" x2="2520" y2="1154.00" stroke="#e2e8f0" stroke-width="0.8"/>
<line x1="124" y1="1143.67" x2="130" y2="1143.67" stroke="#334155" stroke-width="1"/>
<line x1="130" y1="1143.67" x2="2520" y2="1143.67" stroke="#e2e8f0" stroke-width="0.8"/>
<line x1="118" y1="1133.33" x2="130" y2="1133.33" stroke="#334155" stroke-width="1"/>
<line x1="130" y1="1133.33" x2="2520" y2="1133.33" stroke="#cbd5e1" stroke-width="1.4"/>
<text x="112" y="1139.33" text-anchor="end" font-family="Arial" font-size="16" fill="#334155">20</text>
<line x1="124" y1="1123.00" x2="130" y2="1123.00" stroke="#334155" stroke-width="1"/>
<line x1="130" y1="1123.00" x2="2520" y2="1123.00" stroke="#e2e8f0" stroke-width="0.8"/>
<line x1="124" y1="1112.67" x2="130" y2="1112.67" stroke="#334155" stroke-width="1"/>
<line x1="130" y1="1112.67" x2="2520" y2="1112.67" stroke="#e2e8f0" stroke-width="0.8"/>
<line x1="124" y1="1102.33" x2="130" y2="1102.33" stroke="#334155" stroke-width="1"/>
<line x1="130" y1="1102.33" x2="2520" y2="1102.33" stroke="#e2e8f0" stroke-width="0.8"/>
<line x1="124" y1="1092.00" x2="130" y2="1092.00" stroke="#334155" stroke-width="1"/>
<line x1="130" y1="1092.00" x2="2520" y2="1092.00" stroke="#e2e8f0" stroke-width="0.8"/>
<line x1="118" y1="1081.67" x2="130" y2="1081.67" stroke="#334155" stroke-width="1"/>
<line x1="130" y1="1081.67" x2="2520" y2="1081.67" stroke="#cbd5e1" stroke-width="1.4"/>
<text x="112" y="1087.67" text-anchor="end" font-family="Arial" font-size="16" fill="#334155">25</text>
<line x1="124" y1="1071.33" x2="130" y2="1071.33" stroke="#334155" stroke-width="1"/>
<line x1="130" y1="1071.33" x2="2520" y2="1071.33" stroke="#e2e8f0" stroke-width="0.8"/>
<line x1="124" y1="1061.00" x2="130" y2="1061.00" stroke="#334155" stroke-width="1"/>
<line x1="130" y1="1061.00" x2="2520" y2="1061.00" stroke="#e2e8f0" stroke-width="0.8"/>
<line x1="124" y1="1050.67" x2="130" y2="1050.67" stroke="#334155" stroke-width="1"/>
<line x1="130" y1="1050.67" x2="2520" y2="1050.67" stroke="#e2e8f0" stroke-width="0.8"/>
<line x1="124" y1="1040.33" x2="130" y2="1040.33" stroke="#334155" stroke-width="1"/>
<line x1="130" y1="1040.33" x2="2520" y2="1040.33" stroke="#e2e8f0" stroke-width="0.8"/>
<line x1="118" y1="1030.00" x2="130" y2="1030.00" stroke="#334155" stroke-width="1"/>
<line x1="130" y1="1030.00" x2="2520" y2="1030.00" stroke="#cbd5e1" stroke-width="1.4"/>
<text x="112" y="1036.00" text-anchor="end" font-family="Arial" font-size="16" fill="#334155">30</text>
<line x1="124" y1="1019.67" x2="130" y2="1019.67" stroke="#334155" stroke-width="1"/>
<line x1="130" y1="1019.67" x2="2520" y2="1019.67" stroke="#e2e8f0" stroke-width="0.8"/>
<line x1="124" y1="1009.33" x2="130" y2="1009.33" stroke="#334155" stroke-width="1"/>
<line x1="130" y1="1009.33" x2="2520" y2="1009.33" stroke="#e2e8f0" stroke-width="0.8"/>
<line x1="124" y1="999.00" x2="130" y2="999.00" stroke="#334155" stroke-width="1"/>
<line x1="130" y1="999.00" x2="2520" y2="999.00" stroke="#e2e8f0" stroke-width="0.8"/>
<line x1="124" y1="988.67" x2="130" y2="988.67" stroke="#334155" stroke-width="1"/>
<line x1="130" y1="988.67" x2="2520" y2="988.67" stroke="#e2e8f0" stroke-width="0.8"/>
<line x1="118" y1="978.33" x2="130" y2="978.33" stroke="#334155" stroke-width="1"/>
<line x1="130" y1="978.33" x2="2520" y2="978.33" stroke="#cbd5e1" stroke-width="1.4"/>
<text x="112" y="984.33" text-anchor="end" font-family="Arial" font-size="16" fill="#334155">35</text>
<line x1="124" y1="968.00" x2="130" y2="968.00" stroke="#334155" stroke-width="1"/>
<line x1="130" y1="968.00" x2="2520" y2="968.00" stroke="#e2e8f0" stroke-width="0.8"/>
<line x1="124" y1="957.67" x2="130" y2="957.67" stroke="#334155" stroke-width="1"/>
<line x1="130" y1="957.67" x2="2520" y2="957.67" stroke="#e2e8f0" stroke-width="0.8"/>
<line x1="124" y1="947.33" x2="130" y2="947.33" stroke="#334155" stroke-width="1"/>
<line x1="130" y1="947.33" x2="2520" y2="947.33" stroke="#e2e8f0" stroke-width="0.8"/>
<line x1="124" y1="937.00" x2="130" y2="937.00" stroke="#334155" stroke-width="1"/>
<line x1="130" y1="937.00" x2="2520" y2="937.00" stroke="#e2e8f0" stroke-width="0.8"/>
<line x1="118" y1="926.67" x2="130" y2="926.67" stroke="#334155" stroke-width="1"/>
<line x1="130" y1="926.67" x2="2520" y2="926.67" stroke="#cbd5e1" stroke-width="1.4"/>
<text x="112" y="932.67" text-anchor="end" font-family="Arial" font-size="16" fill="#334155">40</text>
<line x1="124" y1="916.33" x2="130" y2="916.33" stroke="#334155" stroke-width="1"/>
<line x1="130" y1="916.33" x2="2520" y2="916.33" stroke="#e2e8f0" stroke-width="0.8"/>
<line x1="124" y1="906.00" x2="130" y2="906.00" stroke="#334155" stroke-width="1"/>
<line x1="130" y1="906.00" x2="2520" y2="906.00" stroke="#e2e8f0" stroke-width="0.8"/>
<line x1="124" y1="895.67" x2="130" y2="895.67" stroke="#334155" stroke-width="1"/>
<line x1="130" y1="895.67" x2="2520" y2="895.67" stroke="#e2e8f0" stroke-width="0.8"/>
<line x1="124" y1="885.33" x2="130" y2="885.33" stroke="#334155" stroke-width="1"/>
<line x1="130" y1="885.33" x2="2520" y2="885.33" stroke="#e2e8f0" stroke-width="0.8"/>
<line x1="118" y1="875.00" x2="130" y2="875.00" stroke="#334155" stroke-width="1"/>
<line x1="130" y1="875.00" x2="2520" y2="875.00" stroke="#cbd5e1" stroke-width="1.4"/>
<text x="112" y="881.00" text-anchor="end" font-family="Arial" font-size="16" fill="#334155">45</text>
<line x1="124" y1="864.67" x2="130" y2="864.67" stroke="#334155" stroke-width="1"/>
<line x1="130" y1="864.67" x2="2520" y2="864.67" stroke="#e2e8f0" stroke-width="0.8"/>
<line x1="124" y1="854.33" x2="130" y2="854.33" stroke="#334155" stroke-width="1"/>
<line x1="130" y1="854.33" x2="2520" y2="854.33" stroke="#e2e8f0" stroke-width="0.8"/>
<line x1="124" y1="844.00" x2="130" y2="844.00" stroke="#334155" stroke-width="1"/>
<line x1="130" y1="844.00" x2="2520" y2="844.00" stroke="#e2e8f0" stroke-width="0.8"/>
<line x1="124" y1="833.67" x2="130" y2="833.67" stroke="#334155" stroke-width="1"/>
<line x1="130" y1="833.67" x2="2520" y2="833.67" stroke="#e2e8f0" stroke-width="0.8"/>
<line x1="118" y1="823.33" x2="130" y2="823.33" stroke="#334155" stroke-width="1"/>
<line x1="130" y1="823.33" x2="2520" y2="823.33" stroke="#cbd5e1" stroke-width="1.4"/>
<text x="112" y="829.33" text-anchor="end" font-family="Arial" font-size="16" fill="#334155">50</text>
<line x1="124" y1="813.00" x2="130" y2="813.00" stroke="#334155" stroke-width="1"/>
<line x1="130" y1="813.00" x2="2520" y2="813.00" stroke="#e2e8f0" stroke-width="0.8"/>
<line x1="124" y1="802.67" x2="130" y2="802.67" stroke="#334155" stroke-width="1"/>
<line x1="130" y1="802.67" x2="2520" y2="802.67" stroke="#e2e8f0" stroke-width="0.8"/>
<line x1="124" y1="792.33" x2="130" y2="792.33" stroke="#334155" stroke-width="1"/>
<line x1="130" y1="792.33" x2="2520" y2="792.33" stroke="#e2e8f0" stroke-width="0.8"/>
<line x1="124" y1="782.00" x2="130" y2="782.00" stroke="#334155" stroke-width="1"/>
<line x1="130" y1="782.00" x2="2520" y2="782.00" stroke="#e2e8f0" stroke-width="0.8"/>
<line x1="118" y1="771.67" x2="130" y2="771.67" stroke="#334155" stroke-width="1"/>
<line x1="130" y1="771.67" x2="2520" y2="771.67" stroke="#cbd5e1" stroke-width="1.4"/>
<text x="112" y="777.67" text-anchor="end" font-family="Arial" font-size="16" fill="#334155">55</text>
<line x1="124" y1="761.33" x2="130" y2="761.33" stroke="#334155" stroke-width="1"/>
<line x1="130" y1="761.33" x2="2520" y2="761.33" stroke="#e2e8f0" stroke-width="0.8"/>
<line x1="124" y1="751.00" x2="130" y2="751.00" stroke="#334155" stroke-width="1"/>
<line x1="130" y1="751.00" x2="2520" y2="751.00" stroke="#e2e8f0" stroke-width="0.8"/>
<line x1="124" y1="740.67" x2="130" y2="740.67" stroke="#334155" stroke-width="1"/>
<line x1="130" y1="740.67" x2="2520" y2="740.67" stroke="#e2e8f0" stroke-width="0.8"/>
<line x1="124" y1="730.33" x2="130" y2="730.33" stroke="#334155" stroke-width="1"/>
<line x1="130" y1="730.33" x2="2520" y2="730.33" stroke="#e2e8f0" stroke-width="0.8"/>
<line x1="118" y1="720.00" x2="130" y2="720.00" stroke="#334155" stroke-width="1"/>
<line x1="130" y1="720.00" x2="2520" y2="720.00" stroke="#cbd5e1" stroke-width="1.4"/>
<text x="112" y="726.00" text-anchor="end" font-family="Arial" font-size="16" fill="#334155">60</text>
<line x1="124" y1="709.67" x2="130" y2="709.67" stroke="#334155" stroke-width="1"/>
<line x1="130" y1="709.67" x2="2520" y2="709.67" stroke="#e2e8f0" stroke-width="0.8"/>
<line x1="124" y1="699.33" x2="130" y2="699.33" stroke="#334155" stroke-width="1"/>
<line x1="130" y1="699.33" x2="2520" y2="699.33" stroke="#e2e8f0" stroke-width="0.8"/>
<line x1="124" y1="689.00" x2="130" y2="689.00" stroke="#334155" stroke-width="1"/>
<line x1="130" y1="689.00" x2="2520" y2="689.00" stroke="#e2e8f0" stroke-width="0.8"/>
<line x1="124" y1="678.67" x2="130" y2="678.67" stroke="#334155" stroke-width="1"/>
<line x1="130" y1="678.67" x2="2520" y2="678.67" stroke="#e2e8f0" stroke-width="0.8"/>
<line x1="118" y1="668.33" x2="130" y2="668.33" stroke="#334155" stroke-width="1"/>
<line x1="130" y1="668.33" x2="2520" y2="668.33" stroke="#cbd5e1" stroke-width="1.4"/>
<text x="112" y="674.33" text-anchor="end" font-family="Arial" font-size="16" fill="#334155">65</text>
<line x1="124" y1="658.00" x2="130" y2="658.00" stroke="#334155" stroke-width="1"/>
<line x1="130" y1="658.00" x2="2520" y2="658.00" stroke="#e2e8f0" stroke-width="0.8"/>
<line x1="124" y1="647.67" x2="130" y2="647.67" stroke="#334155" stroke-width="1"/>
<line x1="130" y1="647.67" x2="2520" y2="647.67" stroke="#e2e8f0" stroke-width="0.8"/>
<line x1="124" y1="637.33" x2="130" y2="637.33" stroke="#334155" stroke-width="1"/>
<line x1="130" y1="637.33" x2="2520" y2="637.33" stroke="#e2e8f0" stroke-width="0.8"/>
<line x1="124" y1="627.00" x2="130" y2="627.00" stroke="#334155" stroke-width="1"/>
<line x1="130" y1="627.00" x2="2520" y2="627.00" stroke="#e2e8f0" stroke-width="0.8"/>
<line x1="118" y1="616.67" x2="130" y2="616.67" stroke="#334155" stroke-width="1"/>
<line x1="130" y1="616.67" x2="2520" y2="616.67" stroke="#cbd5e1" stroke-width="1.4"/>
<text x="112" y="622.67" text-anchor="end" font-family="Arial" font-size="16" fill="#334155">70</text>
<line x1="124" y1="606.33" x2="130" y2="606.33" stroke="#334155" stroke-width="1"/>
<line x1="130" y1="606.33" x2="2520" y2="606.33" stroke="#e2e8f0" stroke-width="0.8"/>
<line x1="124" y1="596.00" x2="130" y2="596.00" stroke="#334155" stroke-width="1"/>
<line x1="130" y1="596.00" x2="2520" y2="596.00" stroke="#e2e8f0" stroke-width="0.8"/>
<line x1="124" y1="585.67" x2="130" y2="585.67" stroke="#334155" stroke-width="1"/>
<line x1="130" y1="585.67" x2="2520" y2="585.67" stroke="#e2e8f0" stroke-width="0.8"/>
<line x1="124" y1="575.33" x2="130" y2="575.33" stroke="#334155" stroke-width="1"/>
<line x1="130" y1="575.33" x2="2520" y2="575.33" stroke="#e2e8f0" stroke-width="0.8"/>
<line x1="118" y1="565.00" x2="130" y2="565.00" stroke="#334155" stroke-width="1"/>
<line x1="130" y1="565.00" x2="2520" y2="565.00" stroke="#cbd5e1" stroke-width="1.4"/>
<text x="112" y="571.00" text-anchor="end" font-family="Arial" font-size="16" fill="#334155">75</text>
<line x1="124" y1="554.67" x2="130" y2="554.67" stroke="#334155" stroke-width="1"/>
<line x1="130" y1="554.67" x2="2520" y2="554.67" stroke="#e2e8f0" stroke-width="0.8"/>
<line x1="124" y1="544.33" x2="130" y2="544.33" stroke="#334155" stroke-width="1"/>
<line x1="130" y1="544.33" x2="2520" y2="544.33" stroke="#e2e8f0" stroke-width="0.8"/>
<line x1="124" y1="534.00" x2="130" y2="534.00" stroke="#334155" stroke-width="1"/>
<line x1="130" y1="534.00" x2="2520" y2="534.00" stroke="#e2e8f0" stroke-width="0.8"/>
<line x1="124" y1="523.67" x2="130" y2="523.67" stroke="#334155" stroke-width="1"/>
<line x1="130" y1="523.67" x2="2520" y2="523.67" stroke="#e2e8f0" stroke-width="0.8"/>
<line x1="118" y1="513.33" x2="130" y2="513.33" stroke="#334155" stroke-width="1"/>
<line x1="130" y1="513.33" x2="2520" y2="513.33" stroke="#cbd5e1" stroke-width="1.4"/>
<text x="112" y="519.33" text-anchor="end" font-family="Arial" font-size="16" fill="#334155">80</text>
<line x1="124" y1="503.00" x2="130" y2="503.00" stroke="#334155" stroke-width="1"/>
<line x1="130" y1="503.00" x2="2520" y2="503.00" stroke="#e2e8f0" stroke-width="0.8"/>
<line x1="124" y1="492.67" x2="130" y2="492.67" stroke="#334155" stroke-width="1"/>
<line x1="130" y1="492.67" x2="2520" y2="492.67" stroke="#e2e8f0" stroke-width="0.8"/>
<line x1="124" y1="482.33" x2="130" y2="482.33" stroke="#334155" stroke-width="1"/>
<line x1="130" y1="482.33" x2="2520" y2="482.33" stroke="#e2e8f0" stroke-width="0.8"/>
<line x1="124" y1="472.00" x2="130" y2="472.00" stroke="#334155" stroke-width="1"/>
<line x1="130" y1="472.00" x2="2520" y2="472.00" stroke="#e2e8f0" stroke-width="0.8"/>
<line x1="118" y1="461.67" x2="130" y2="461.67" stroke="#334155" stroke-width="1"/>
<line x1="130" y1="461.67" x2="2520" y2="461.67" stroke="#cbd5e1" stroke-width="1.4"/>
<text x="112" y="467.67" text-anchor="end" font-family="Arial" font-size="16" fill="#334155">85</text>
<line x1="124" y1="451.33" x2="130" y2="451.33" stroke="#334155" stroke-width="1"/>
<line x1="130" y1="451.33" x2="2520" y2="451.33" stroke="#e2e8f0" stroke-width="0.8"/>
<line x1="124" y1="441.00" x2="130" y2="441.00" stroke="#334155" stroke-width="1"/>
<line x1="130" y1="441.00" x2="2520" y2="441.00" stroke="#e2e8f0" stroke-width="0.8"/>
<line x1="124" y1="430.67" x2="130" y2="430.67" stroke="#334155" stroke-width="1"/>
<line x1="130" y1="430.67" x2="2520" y2="430.67" stroke="#e2e8f0" stroke-width="0.8"/>
<line x1="124" y1="420.33" x2="130" y2="420.33" stroke="#334155" stroke-width="1"/>
<line x1="130" y1="420.33" x2="2520" y2="420.33" stroke="#e2e8f0" stroke-width="0.8"/>
<line x1="118" y1="410.00" x2="130" y2="410.00" stroke="#334155" stroke-width="1"/>
<line x1="130" y1="410.00" x2="2520" y2="410.00" stroke="#cbd5e1" stroke-width="1.4"/>
<text x="112" y="416.00" text-anchor="end" font-family="Arial" font-size="16" fill="#334155">90</text>
<line x1="124" y1="399.67" x2="130" y2="399.67" stroke="#334155" stroke-width="1"/>
<line x1="130" y1="399.67" x2="2520" y2="399.67" stroke="#e2e8f0" stroke-width="0.8"/>
<line x1="124" y1="389.33" x2="130" y2="389.33" stroke="#334155" stroke-width="1"/>
<line x1="130" y1="389.33" x2="2520" y2="389.33" stroke="#e2e8f0" stroke-width="0.8"/>
<line x1="124" y1="379.00" x2="130" y2="379.00" stroke="#334155" stroke-width="1"/>
<line x1="130" y1="379.00" x2="2520" y2="379.00" stroke="#e2e8f0" stroke-width="0.8"/>
<line x1="124" y1="368.67" x2="130" y2="368.67" stroke="#334155" stroke-width="1"/>
<line x1="130" y1="368.67" x2="2520" y2="368.67" stroke="#e2e8f0" stroke-width="0.8"/>
<line x1="118" y1="358.33" x2="130" y2="358.33" stroke="#334155" stroke-width="1"/>
<line x1="130" y1="358.33" x2="2520" y2="358.33" stroke="#cbd5e1" stroke-width="1.4"/>
<text x="112" y="364.33" text-anchor="end" font-family="Arial" font-size="16" fill="#334155">95</text>
<line x1="124" y1="348.00" x2="130" y2="348.00" stroke="#334155" stroke-width="1"/>
<line x1="130" y1="348.00" x2="2520" y2="348.00" stroke="#e2e8f0" stroke-width="0.8"/>
<line x1="124" y1="337.67" x2="130" y2="337.67" stroke="#334155" stroke-width="1"/>
<line x1="130" y1="337.67" x2="2520" y2="337.67" stroke="#e2e8f0" stroke-width="0.8"/>
<line x1="124" y1="327.33" x2="130" y2="327.33" stroke="#334155" stroke-width="1"/>
<line x1="130" y1="327.33" x2="2520" y2="327.33" stroke="#e2e8f0" stroke-width="0.8"/>
<line x1="124" y1="317.00" x2="130" y2="317.00" stroke="#334155" stroke-width="1"/>
<line x1="130" y1="317.00" x2="2520" y2="317.00" stroke="#e2e8f0" stroke-width="0.8"/>
<line x1="118" y1="306.67" x2="130" y2="306.67" stroke="#334155" stroke-width="1"/>
<line x1="130" y1="306.67" x2="2520" y2="306.67" stroke="#cbd5e1" stroke-width="1.4"/>
<text x="112" y="312.67" text-anchor="end" font-family="Arial" font-size="16" fill="#334155">100</text>
<line x1="124" y1="296.33" x2="130" y2="296.33" stroke="#334155" stroke-width="1"/>
<line x1="130" y1="296.33" x2="2520" y2="296.33" stroke="#e2e8f0" stroke-width="0.8"/>
<line x1="124" y1="286.00" x2="130" y2="286.00" stroke="#334155" stroke-width="1"/>
<line x1="130" y1="286.00" x2="2520" y2="286.00" stroke="#e2e8f0" stroke-width="0.8"/>
<line x1="124" y1="275.67" x2="130" y2="275.67" stroke="#334155" stroke-width="1"/>
<line x1="130" y1="275.67" x2="2520" y2="275.67" stroke="#e2e8f0" stroke-width="0.8"/>
<line x1="124" y1="265.33" x2="130" y2="265.33" stroke="#334155" stroke-width="1"/>
<line x1="130" y1="265.33" x2="2520" y2="265.33" stroke="#e2e8f0" stroke-width="0.8"/>
<line x1="118" y1="255.00" x2="130" y2="255.00" stroke="#334155" stroke-width="1"/>
<line x1="130" y1="255.00" x2="2520" y2="255.00" stroke="#cbd5e1" stroke-width="1.4"/>
<text x="112" y="261.00" text-anchor="end" font-family="Arial" font-size="16" fill="#334155">105</text>
<line x1="124" y1="244.67" x2="130" y2="244.67" stroke="#334155" stroke-width="1"/>
<line x1="130" y1="244.67" x2="2520" y2="244.67" stroke="#e2e8f0" stroke-width="0.8"/>
<line x1="124" y1="234.33" x2="130" y2="234.33" stroke="#334155" stroke-width="1"/>
<line x1="130" y1="234.33" x2="2520" y2="234.33" stroke="#e2e8f0" stroke-width="0.8"/>
<line x1="124" y1="224.00" x2="130" y2="224.00" stroke="#334155" stroke-width="1"/>
<line x1="130" y1="224.00" x2="2520" y2="224.00" stroke="#e2e8f0" stroke-width="0.8"/>
<line x1="124" y1="213.67" x2="130" y2="213.67" stroke="#334155" stroke-width="1"/>
<line x1="130" y1="213.67" x2="2520" y2="213.67" stroke="#e2e8f0" stroke-width="0.8"/>
<line x1="118" y1="203.33" x2="130" y2="203.33" stroke="#334155" stroke-width="1"/>
<line x1="130" y1="203.33" x2="2520" y2="203.33" stroke="#cbd5e1" stroke-width="1.4"/>
<text x="112" y="209.33" text-anchor="end" font-family="Arial" font-size="16" fill="#334155">110</text>
<line x1="124" y1="193.00" x2="130" y2="193.00" stroke="#334155" stroke-width="1"/>
<line x1="130" y1="193.00" x2="2520" y2="193.00" stroke="#e2e8f0" stroke-width="0.8"/>
<line x1="124" y1="182.67" x2="130" y2="182.67" stroke="#334155" stroke-width="1"/>
<line x1="130" y1="182.67" x2="2520" y2="182.67" stroke="#e2e8f0" stroke-width="0.8"/>
<line x1="124" y1="172.33" x2="130" y2="172.33" stroke="#334155" stroke-width="1"/>
<line x1="130" y1="172.33" x2="2520" y2="172.33" stroke="#e2e8f0" stroke-width="0.8"/>
<line x1="124" y1="162.00" x2="130" y2="162.00" stroke="#334155" stroke-width="1"/>
<line x1="130" y1="162.00" x2="2520" y2="162.00" stroke="#e2e8f0" stroke-width="0.8"/>
<line x1="118" y1="151.67" x2="130" y2="151.67" stroke="#334155" stroke-width="1"/>
<line x1="130" y1="151.67" x2="2520" y2="151.67" stroke="#cbd5e1" stroke-width="1.4"/>
<text x="112" y="157.67" text-anchor="end" font-family="Arial" font-size="16" fill="#334155">115</text>
<line x1="124" y1="141.33" x2="130" y2="141.33" stroke="#334155" stroke-width="1"/>
<line x1="130" y1="141.33" x2="2520" y2="141.33" stroke="#e2e8f0" stroke-width="0.8"/>
<line x1="124" y1="131.00" x2="130" y2="131.00" stroke="#334155" stroke-width="1"/>
<line x1="130" y1="131.00" x2="2520" y2="131.00" stroke="#e2e8f0" stroke-width="0.8"/>
<line x1="124" y1="120.67" x2="130" y2="120.67" stroke="#334155" stroke-width="1"/>
<line x1="130" y1="120.67" x2="2520" y2="120.67" stroke="#e2e8f0" stroke-width="0.8"/>
<line x1="124" y1="110.33" x2="130" y2="110.33" stroke="#334155" stroke-width="1"/>
<line x1="130" y1="110.33" x2="2520" y2="110.33" stroke="#e2e8f0" stroke-width="0.8"/>
<line x1="118" y1="100.00" x2="130" y2="100.00" stroke="#334155" stroke-width="1"/>
<line x1="130" y1="100.00" x2="2520" y2="100.00" stroke="#cbd5e1" stroke-width="1.4"/>
<text x="112" y="106.00" text-anchor="end" font-family="Arial" font-size="16" fill="#334155">120</text>
<polyline points="130.00,1339.90 255.79,1340.00 381.58,1340.00 507.37,1339.79 633.16,1339.69 758.95,1339.59 884.74,1337.52 1010.53,1337.31 1136.32,1334.94 1262.11,1320.88 1387.89,1324.81 1513.68,1303.01 1639.47,1287.51 1765.26,1279.76 1891.05,1178.70 2016.84,1165.16 2142.63,1066.27 2268.42,993.83 2394.21,942.37 2520.00,601.48" fill="none" stroke="#2563eb" stroke-width="3"/>
<circle cx="130.00" cy="1339.90" r="6" fill="#1d4ed8"/>
<text x="130.00" y="1325.90" text-anchor="middle" font-family="Arial" font-size="14" fill="#1e293b">0.01s</text>
<circle cx="255.79" cy="1340.00" r="6" fill="#1d4ed8"/>
<text x="255.79" y="1326.00" text-anchor="middle" font-family="Arial" font-size="14" fill="#1e293b">0.00s</text>
<circle cx="381.58" cy="1340.00" r="6" fill="#1d4ed8"/>
<text x="381.58" y="1326.00" text-anchor="middle" font-family="Arial" font-size="14" fill="#1e293b">0.00s</text>
<circle cx="507.37" cy="1339.79" r="6" fill="#1d4ed8"/>
<text x="507.37" y="1325.79" text-anchor="middle" font-family="Arial" font-size="14" fill="#1e293b">0.02s</text>
<circle cx="633.16" cy="1339.69" r="6" fill="#1d4ed8"/>
<text x="633.16" y="1325.69" text-anchor="middle" font-family="Arial" font-size="14" fill="#1e293b">0.03s</text>
<circle cx="758.95" cy="1339.59" r="6" fill="#1d4ed8"/>
<text x="758.95" y="1325.59" text-anchor="middle" font-family="Arial" font-size="14" fill="#1e293b">0.04s</text>
<circle cx="884.74" cy="1337.52" r="6" fill="#1d4ed8"/>
<text x="884.74" y="1323.52" text-anchor="middle" font-family="Arial" font-size="14" fill="#1e293b">0.24s</text>
<circle cx="1010.53" cy="1337.31" r="6" fill="#1d4ed8"/>
<text x="1010.53" y="1323.31" text-anchor="middle" font-family="Arial" font-size="14" fill="#1e293b">0.26s</text>
<circle cx="1136.32" cy="1334.94" r="6" fill="#1d4ed8"/>
<text x="1136.32" y="1320.94" text-anchor="middle" font-family="Arial" font-size="14" fill="#1e293b">0.49s</text>
<circle cx="1262.11" cy="1320.88" r="6" fill="#1d4ed8"/>
<text x="1262.11" y="1306.88" text-anchor="middle" font-family="Arial" font-size="14" fill="#1e293b">1.85s</text>
<circle cx="1387.89" cy="1324.81" r="6" fill="#1d4ed8"/>
<text x="1387.89" y="1310.81" text-anchor="middle" font-family="Arial" font-size="14" fill="#1e293b">1.47s</text>
<circle cx="1513.68" cy="1303.01" r="6" fill="#1d4ed8"/>
<text x="1513.68" y="1289.01" text-anchor="middle" font-family="Arial" font-size="14" fill="#1e293b">3.58s</text>
<circle cx="1639.47" cy="1287.51" r="6" fill="#1d4ed8"/>
<text x="1639.47" y="1273.51" text-anchor="middle" font-family="Arial" font-size="14" fill="#1e293b">5.08s</text>
<circle cx="1765.26" cy="1279.76" r="6" fill="#1d4ed8"/>
<text x="1765.26" y="1265.76" text-anchor="middle" font-family="Arial" font-size="14" fill="#1e293b">5.83s</text>
<circle cx="1891.05" cy="1178.70" r="6" fill="#1d4ed8"/>
<text x="1891.05" y="1164.70" text-anchor="middle" font-family="Arial" font-size="14" fill="#1e293b">15.61s</text>
<circle cx="2016.84" cy="1165.16" r="6" fill="#1d4ed8"/>
<text x="2016.84" y="1151.16" text-anchor="middle" font-family="Arial" font-size="14" fill="#1e293b">16.92s</text>
<circle cx="2142.63" cy="1066.27" r="6" fill="#1d4ed8"/>
<text x="2142.63" y="1052.27" text-anchor="middle" font-family="Arial" font-size="14" fill="#1e293b">26.49s</text>
<circle cx="2268.42" cy="993.83" r="6" fill="#1d4ed8"/>
<text x="2268.42" y="979.83" text-anchor="middle" font-family="Arial" font-size="14" fill="#1e293b">33.50s</text>
<circle cx="2394.21" cy="942.37" r="6" fill="#1d4ed8"/>
<text x="2394.21" y="928.37" text-anchor="middle" font-family="Arial" font-size="14" fill="#1e293b">38.48s</text>
<circle cx="2520.00" cy="601.48" r="6" fill="#1d4ed8"/>
<text x="2520.00" y="587.48" text-anchor="middle" font-family="Arial" font-size="14" fill="#1e293b">71.47s</text>
<text x="1325.00" y="1440" text-anchor="middle" font-family="Arial" font-size="24" fill="#0f172a">Complexity (l=p=c=g)</text>
<text x="42" y="720.00" text-anchor="middle" font-family="Arial" font-size="24" fill="#0f172a" transform="rotate(-90,42,720.00)">Time (seconds)</text>
</svg>