<svg xmlns="http://www.w3.org/2000/svg" width="2600" height="1500">
<rect x="0" y="0" width="100%" height="100%" fill="#f8fafc"/>
<text x="130" y="52" font-family="Arial" font-size="34" fill="#0f172a">FF Benchmark (Complexity vs Time)</text>
<text x="130" y="84" font-family="Arial" font-size="20" fill="#334155">Complexity = l=p=c=g. Unsolved instances are shown at timeout line.</text>
<line x1="130" y1="1340" x2="2520" y2="1340" stroke="#334155" stroke-width="3"/>
<line x1="130" y1="1340" x2="130" y2="100" stroke="#334155" stroke-width="3"/>
<line x1="130.00" y1="1340" x2="130.00" y2="1354" stroke="#334155" stroke-width="2"/>
<text x="130.00" y="1382" text-anchor="middle" font-family="Arial" font-size="18" fill="#334155">4</text>
<line x1="262.78" y1="1340" x2="262.78" y2="1354" stroke="#334155" stroke-width="2"/>
<text x="262.78" y="1382" text-anchor="middle" font-family="Arial" font-size="18" fill="#334155">6</text>
<line x1="395.56" y1="1340" x2="395.56" y2="1354" stroke="#334155" stroke-width="2"/>
<text x="395.56" y="1382" text-anchor="middle" font-family="Arial" font-size="18" fill="#334155">8</text>
<line x1="528.33" y1="1340" x2="528.33" y2="1354" stroke="#334155" stroke-width="2"/>
<text x="528.33" y="1382" text-anchor="middle" font-family="Arial" font-size="18" fill="#334155">10</text>
<line x1="661.11" y1="1340" x2="661.11" y2="1354" stroke="#334155" stroke-width="2"/>
<text x="661.11" y="1382" text-anchor="middle" font-family="Arial" font-size="18" fill="#334155">12</text>
<line x1="793.89" y1="1340" x2="793.89" y2="1354" stroke="#334155" stroke-width="2"/>
<text x="793.89" y="1382" text-anchor="middle" font-family="Arial" font-size="18" fill="#334155">14</text>
<line x1="926.67" y1="1340" x2="926.67" y2="1354" stroke="#334155" stroke-width="2"/>
<text x="926.67" y="1382" text-anchor="middle" font-family="Arial" font-size="18" fill="#334155">16</text>
<line x1="1059.44" y1="1340" x2="1059.44" y2="1354" stroke="#334155" stroke-width="2"/>
<text x="1059.44" y="1382" text-anchor="middle" font-family="Arial" font-size="18" fill="#334155">18</text>
<line x1="1192.22" y1="1340" x2="1192.22" y2="1354" stroke="#334155" stroke-width="2"/>
<text x="1192.22" y="1382" text-anchor="middle" font-family="Arial" font-size="18" fill="#334155">20</text>
<line x1="1325.00" y1="1340" x2="1325.00" y2="1354" stroke="#334155" stroke-width="2"/>
<text x="1325.00" y="1382" text-anchor="middle" font-family="Arial" font-size="18" fill="#334155">22</text>
<line x1="1457.78" y1="1340" x2="1457.78" y2="1354" stroke="#334155" stroke-width="2"/>
<text x="1457.78" y="1382" text-anchor="middle" font-family="Arial" font-size="18" fill="#334155">24</text>
<line x1="1590.56" y1="1340" x2="1590.56" y2="1354" stroke="#334155" stroke-width="2"/>
<text x="1590.56" y="1382" text-anchor="middle" font-family="Arial" font-size="18" fill="#334155">26</text>
<line x1="1723.33" y1="1340" x2="1723.33" y2="1354" stroke="#334155" stroke-width="2"/>
<text x="1723.33" y="1382" text-anchor="middle" font-family="Arial" font-size="18" fill="#334155">28</text>
<line x1="1856.11" y1="1340" x2="1856.11" y2="1354" stroke="#334155" stroke-width="2"/>
<text x="1856.11" y="1382" text-anchor="middle" font-family="Arial" font-size="18" fill="#334155">30</text>
<line x1="1988.89" y1="1340" x2="1988.89" y2="1354" stroke="#334155" stroke-width="2"/>
<text x="1988.89" y="1382" text-anchor="middle" font-family="Arial" font-size="18" fill="#334155">32</text>
<line x1="2121.67" y1="1340" x2="2121.67" y2="1354" stroke="#334155" stroke-width="2"/>
<text x="2121.67" y="1382" text-anchor="middle" font-family="Arial" font-size="18" fill="#334155">34</text>
<line x1="2254.44" y1="1340" x2="2254.44" y2="1354" stroke="#334155" stroke-width="2"/>
<text x="2254.44" y="1382" text-anchor="middle" font-family="Arial" font-size="18" fill="#334155">36</text>
<line x1="2387.22" y1="1340" x2="2387.22" y2="1354" stroke="#334155" stroke-width="2"/>
<text x="2387.22" y="1382" text-anchor="middle" font-family="Arial" font-size="18" fill="#334155">38</text>
<line x1="2520.00" y1="1340" x2="2520.00" y2="1354" stroke="#334155" stroke-width="2"/>
<text x="2520.00" y="1382" text-anchor="middle" font-family="Arial" font-size="18" fill="#334155">40</text>
<line x1="118" y1="1340.00" x2="130" y2="1340.00" stroke="#334155" stroke-width="1"/>
<line x1="130" y1="1340.00" x2="2520" y2="1340.00" stroke="#cbd5e1" stroke-width="1.4"/>
<text x="112" y="1346.00" text-anchor="end" font-family="Arial" font-size="16" fill="#334155">0</text>
<line x1="124" y1="1319.33" x2="130" y2="1319.33" stroke="#334155" stroke-width="1"/>
<line x1="130" y1="1319.33" x2="2520" y2="1319.33" stroke="#e2e8f0" stroke-width="0.8"/>
<line x1="124" y1="1298.67" x2="130" y2="1298.67" stroke="#334155" stroke-width="1"/>
<line x1="130" y1="1298.67" x2="2520" y2="1298.67" stroke="#e2e8f0" stroke-width="0.8"/>
<line x1="124" y1="1278.00" x2="130" y2="1278.00" stroke="#334155" stroke-width="1"/>
<line x1="130" y1="1278.00" x2="2520" y2="1278.00" stroke="#e2e8f0" stroke-width="0.8"/>
<line x1="124" y1="1257.33" x2="130" y2="1257.33" stroke="#334155" stroke-width="1"/>
<line x1="130" y1="1257.33" x2="2520" y2="1257.33" stroke="#e2e8f0" stroke-width="0.8"/>
<line x1="118" y1="1236.67" x2="130" y2="1236.67" stroke="#334155" stroke-width="1"/>
<line x1="130" y1="1236.67" x2="2520" y2="1236.67" stroke="#cbd5e1" stroke-width="1.4"/>
<text x="112" y="1242.67" text-anchor="end" font-family="Arial" font-size="16" fill="#334155">5</text>
<line x1="124" y1="1216.00" x2="130" y2="1216.00" stroke="#334155" stroke-width="1"/>
<line x1="130" y1="1216.00" x2="2520" y2="1216.00" stroke="#e2e8f0" stroke-width="0.8"/>
<line x1="124" y1="1195.33" x2="130" y2="1195.33" stroke="#334155" stroke-width="1"/>
<line x1="130" y1="1195.33" x2="2520" y2="1195.33" stroke="#e2e8f0" stroke-width="0.8"/>
<line x1="124" y1="1174.67" x2="130" y2="1174.67" stroke="#334155" stroke-width="1"/>
<line x1="130" y1="1174.67" x2="2520" y2="1174.67" stroke="#e2e8f0" stroke-width="0.8"/>
<line x1="124" y1="1154.00" x2="130" y2="1154.00" stroke="#334155" stroke-width="1"/>
<line x1="130" y1="1154.00" x2="2520" y2="1154.00" stroke="#e2e8f0" stroke-width="0.8"/>
<line x1="118" y1="1133.33" x2="130" y2="1133.33" stroke="#334155" stroke-width="1"/>
<line x1="130" y1="1133.33" x2="2520" y2="1133.33" stroke="#cbd5e1" stroke-width="1.4"/>
<text x="112" y="1139.33" text-anchor="end" font-family="Arial" font-size="16" fill="#334155">10</text>
<line x1="124" y1="1112.67" x2="130" y2="1112.67" stroke="#334155" stroke-width="1"/>
<line x1="130" y1="1112.67" x2="2520" y2="1112.67" stroke="#e2e8f0" stroke-width="0.8"/>
<line x1="124" y1="1092.00" x2="130" y2="1092.00" stroke="#334155" stroke-width="1"/>
<line x1="130" y1="1092.00" x2="2520" y2="1092.00" stroke="#e2e8f0" stroke-width="0.8"/>
<line x1="124" y1="1071.33" x2="130" y2="1071.33" stroke="#334155" stroke-width="1"/>
<line x1="130" y1="1071.33" x2="2520" y2="1071.33" stroke="#e2e8f0" stroke-width="0.8"/>
<line x1="124" y1="1050.67" x2="130" y2="1050.67" stroke="#334155" stroke-width="1"/>
<line x1="130" y1="1050.67" x2="2520" y2="1050.67" stroke="#e2e8f0" stroke-width="0.8"/>
<line x1="118" y1="1030.00" x2="130" y2="1030.00" stroke="#334155" stroke-width="1"/>
<line x1="130" y1="1030.00" x2="2520" y2="1030.00" stroke="#cbd5e1" stroke-width="1.4"/>
<text x="112" y="1036.00" text-anchor="end" font-family="Arial" font-size="16" fill="#334155">15</text>
<line x1="124" y1="1009.33" x2="130" y2="1009.33" stroke="#334155" stroke-width="1"/>
<line x1="130" y1="1009.33" x2="2520" y2="1009.33" stroke="#e2e8f0" stroke-width="0.8"/>
<line x1="124" y1="988.67" x2="130" y2="988.67" stroke="#334155" stroke-width="1"/>
<line x1="130" y1="988.67" x2="2520" y2="988.67" stroke="#e2e8f0" stroke-width="0.8"/>
<line x1="124" y1="968.00" x2="130" y2="968.00" stroke="#334155" stroke-width="1"/>
<line x1="130" y1="968.00" x2="2520" y2="968.00" stroke="#e2e8f0" stroke-width="0.8"/>
<line x1="124" y1="947.33" x2="130" y2="947.33" stroke="#334155" stroke-width="1"/>
<line x1="130" y1="947.33" x2="2520" y2="947.33" stroke="#e2e8f0" stroke-width="0.8"/>
<line x1="118" y1="926.67" x2="130" y2="926.67" stroke="#334155" stroke-width="1"/>
<line x1="130" y1="926.67" x2="2520" y2="926.67" stroke="#cbd5e1" stroke-width="1.4"/>
<text x="112" y="932.67" text-anchor="end" font-family="Arial" font-size="16" fill="#334155">20</text>
<line x1="124" y1="906.00" x2="130" y2="906.00" stroke="#334155" stroke-width="1"/>
<line x1="130" y1="906.00" x2="2520" y2="906.00" stroke="#e2e8f0" stroke-width="0.8"/>
<line x1="124" y1="885.33" x2="130" y2="885.33" stroke="#334155" stroke-width="1"/>
<line x1="130" y1="885.33" x2="2520" y2="885.33" stroke="#e2e8f0" stroke-width="0.8"/>
<line x1="124" y1="864.67" x2="130" y2="864.67" stroke="#334155" stroke-width="1"/>
<line x1="130" y1="864.67" x2="2520" y2="864.67" stroke="#e2e8f0" stroke-width="0.8"/>
<line x1="124" y1="844.00" x2="130" y2="844.00" stroke="#334155" stroke-width="1"/>
<line x1="130" y1="844.00" x2="2520" y2="844.00" stroke="#e2e8f0" stroke-width="0.8"/>
<line x1="118" y1="823.33" x2="130" y2="823.33" stroke="#334155" stroke-width="1"/>
<line x1="130" y1="823.33" x2="2520" y2="823.33" stroke="#cbd5e1" stroke-width="1.4"/>
<text x="112" y="829.33" text-anchor="end" font-family="Arial" font-size="16" fill="#334155">25</text>
<line x1="124" y1="802.67" x2="130" y2="802.67" stroke="#334155" stroke-width="1"/>
<line x1="130" y1="802.67" x2="2520" y2="802.67" stroke="#e2e8f0" stroke-width="0.8"/>
<line x1="124" y1="782.00" x2="130" y2="782.00" stroke="#334155" stroke-width="1"/>
<line x1="130" y1="782.00" x2="2520" y2="782.00" stroke="#e2e8f0" stroke-width="0.8"/>
<line x1="124" y1="761.33" x2="130" y2="761.33" stroke="#334155" stroke-width="1"/>
<line x1="130" y1="761.33" x2="2520" y2="761.33" stroke="#e2e8f0" stroke-width="0.8"/>
<line x1="124" y1="740.67" x2="130" y2="740.67" stroke="#334155" stroke-width="1"/>
<line x1="130" y1="740.67" x2="2520" y2="740.67" stroke="#e2e8f0" stroke-width="0.8"/>
<line x1="118" y1="720.00" x2="130" y2="720.00" stroke="#334155" stroke-width="1"/>
<line x1="130" y1="720.00" x2="2520" y2="720.00" stroke="#cbd5e1" stroke-width="1.4"/>
<text x="112" y="726.00" text-anchor="end" font-family="Arial" font-size="16" fill="#334155">30</text>
<line x1="124" y1="699.33" x2="130" y2="699.33" stroke="#334155" stroke-width="1"/>
<line x1="130" y1="699.33" x2="2520" y2="699.33" stroke="#e2e8f0" stroke-width="0.8"/>
<line x1="124" y1="678.67" x2="130" y2="678.67" stroke="#334155" stroke-width="1"/>
<line x1="130" y1="678.67" x2="2520" y2="678.67" stroke="#e2e8f0" stroke-width="0.8"/>
<line x1="124" y1="658.00" x2="130" y2="658.00" stroke="#334155" stroke-width="1"/>
<line x1="130" y1="658.00" x2="2520" y2="658.00" stroke="#e2e8f0" stroke-width="0.8"/>
<line x1="124" y1="637.33" x2="130" y2="637.33" stroke="#334155" stroke-width="1"/>
<line x1="130" y1="637.33" x2="2520" y2="637.33" stroke="#e2e8f0" stroke-width="0.8"/>
<line x1="118" y1="616.67" x2="130" y2="616.67" stroke="#334155" stroke-width="1"/>
<line x1="130" y1="616.67" x2="2520" y2="616.67" stroke="#cbd5e1" stroke-width="1.4"/>
<text x="112" y="622.67" text-anchor="end" font-family="Arial" font-size="16" fill="#334155">35</text>
<line x1="124" y1="596.00" x2="130" y2="596.00" stroke="#334155" stroke-width="1"/>
<line x1="130" y1="596.00" x2="2520" y2="596.00" stroke="#e2e8f0" stroke-width="0.8"/>
<line x1="124" y1="575.33" x2="130" y2="575.33" stroke="#334155" stroke-width="1"/>
<line x1="130" y1="575.33" x2="2520" y2="575.33" stroke="#e2e8f0" stroke-width="0.8"/>
<line x1="124" y1="554.67" x2="130" y2="554.67" stroke="#334155" stroke-width="1"/>
<line x1="130" y1="554.67" x2="2520" y2="554.67" stroke="#e2e8f0" stroke-width="0.8"/>
<line x1="124" y1="534.00" x2="130" y2="534.00" stroke="#334155" stroke-width="1"/>
<line x1="130" y1="534.00" x2="2520" y2="534.00" stroke="#e2e8f0" stroke-width="0.8"/>
<line x1="118" y1="513.33" x2="130" y2="513.33" stroke="#334155" stroke-width="1"/>
<line x1="130" y1="513.33" x2="2520" y2="513.33" stroke="#cbd5e1" stroke-width="1.4"/>
<text x="112" y="519.33" text-anchor="end" font-family="Arial" font-size="16" fill="#334155">40</text>
<line x1="124" y1="492.67" x2="130" y2="492.67" stroke="#334155" stroke-width="1"/>
<line x1="130" y1="492.67" x2="2520" y2="492.67" stroke="#e2e8f0" stroke-width="0.8"/>
<line x1="124" y1="472.00" x2="130" y2="472.00" stroke="#334155" stroke-width="1"/>
<line x1="130" y1="472.00" x2="2520" y2="472.00" stroke="#e2e8f0" stroke-width="0.8"/>
<line x1="124" y1="451.33" x2="130" y2="451.33" stroke="#334155" stroke-width="1"/>
<line x1="130" y1="451.33" x2="2520" y2="451.33" stroke="#e2e8f0" stroke-width="0.8"/>
<line x1="124" y1="430.67" x2="130" y2="430.67" stroke="#334155" stroke-width="1"/>
<line x1="130" y1="430.67" x2="2520" y2="430.67" stroke="#e2e8f0" stroke-width="0.8"/>
<line x1="118" y1="410.00" x2="130" y2="410.00" stroke="#334155" stroke-width="1"/>
<line x1="130" y1="410.00" x2="2520" y2="410.00" stroke="#cbd5e1" stroke-width="1.4"/>
<text x="112" y="416.00" text-anchor="end" font-family="Arial" font-size="16" fill="#334155">45</text>
<line x1="124" y1="389.33" x2="130" y2="389.33" stroke="#334155" stroke-width="1"/>
<line x1="130" y1="389.33" x2="2520" y2="389.33" stroke="#e2e8f0" stroke-width="0.8"/>
<line x1="124" y1="368.67" x2="130" y2="368.67" stroke="#334155" stroke-width="1"/>
<line x1="130" y1="368.67" x2="2520" y2="368.67" stroke="#e2e8f0" stroke-width="0.8"/>
<line x1="124" y1="348.00" x2="130" y2="348.00" stroke="#334155" stroke-width="1"/>
<line x1="130" y1="348.00" x2="2520" y2="348.00" stroke="#e2e8f0" stroke-width="0.8"/>
<line x1="124" y1="327.33" x2="130" y2="327.33" stroke="#334155" stroke-width="1"/>
<line x1="130" y1="327.33" x2="2520" y2="327.33" stroke="#e2e8f0" stroke-width="0.8"/>
<line x1="118" y1="306.67" x2="130" y2="306.67" stroke="#334155" stroke-width="1"/>
<line x1="130" y1="306.67" x2="2520" y2="306.67" stroke="#cbd5e1" stroke-width="1.4"/>
<text x="112" y="312.67" text-anchor="end" font-family="Arial" font-size="16" fill="#334155">50</text>
<line x1="124" y1="286.00" x2="130" y2="286.00" stroke="#334155" stroke-width="1"/>
<line x1="130" y1="286.00" x2="2520" y2="286.00" stroke="#e2e8f0" stroke-width="0.8"/>
<line x1="124" y1="265.33" x2="130" y2="265.33" stroke="#334155" stroke-width="1"/>
<line x1="130" y1="265.33" x2="2520" y2="265.33" stroke="#e2e8f0" stroke-width="0.8"/>
<line x1="124" y1="244.67" x2="130" y2="244.67" stroke="#334155" stroke-width="1"/>
<line x1="130" y1="244.67" x2="2520" y2="244.67" stroke="#e2e8f0" stroke-width="0.8"/>
<line x1="124" y1="224.00" x2="130" y2="224.00" stroke="#334155" stroke-width="1"/>
<line x1="130" y1="224.00" x2="2520" y2="224.00" stroke="#e2e8f0" stroke-width="0.8"/>
<line x1="118" y1="203.33" x2="130" y2="203.33" stroke="#334155" stroke-width="1"/>
<line x1="130" y1="203.33" x2="2520" y2="203.33" stroke="#cbd5e1" stroke-width="1.4"/>
<text x="112" y="209.33" text-anchor="end" font-family="Arial" font-size="16" fill="#334155">55</text>
<line x1="124" y1="182.67" x2="130" y2="182.67" stroke="#334155" stroke-width="1"/>
<line x1="130" y1="182.67" x2="2520" y2="182.67" stroke="#e2e8f0" stroke-width="0.8"/>
<line x1="124" y1="162.00" x2="130" y2="162.00" stroke="#334155" stroke-width="1"/>
<line x1="130" y1="162.00" x2="2520" y2="162.00" stroke="#e2e8f0" stroke-width="0.8"/>
<line x1="124" y1="141.33" x2="130" y2="141.33" stroke="#334155" stroke-width="1"/>
<line x1="130" y1="141.33" x2="2520" y2="141.33" stroke="#e2e8f0" stroke-width="0.8"/>
<line x1="124" y1="120.67" x2="130" y2="120.67" stroke="#334155" stroke-width="1"/>
<line x1="130" y1="120.67" x2="2520" y2="120.67" stroke="#e2e8f0" stroke-width="0.8"/>
<line x1="118" y1="100.00" x2="130" y2="100.00" stroke="#334155" stroke-width="1"/>
<line x1="130" y1="100.00" x2="2520" y2="100.00" stroke="#cbd5e1" stroke-width="1.4"/>
<text x="112" y="106.00" text-anchor="end" font-family="Arial" font-size="16" fill="#334155">60</text>
<polyline points="130.00,1340.00 262.78,1340.00 395.56,1339.59 528.33,1338.35 661.11,1339.17 793.89,1338.14 926.67,1333.59 1059.44,1333.80 1192.22,1315.61 1325.00,1320.16 1457.78,1255.68 1590.56,1238.32 1723.33,1178.80 1856.11,1052.94 1988.89,709.67 2121.67,664.82 2254.44,721.24 2387.22,236.40 2520.00,100.00" fill="none" stroke="#2563eb" stroke-width="3"/>
<circle cx="130.00" cy="1340.00" r="6" fill="#1d4ed8"/>
<text x="130.00" y="1326.00" text-anchor="middle" font-family="Arial" font-size="14" fill="#1e293b">0.00s</text>
<circle cx="262.78" cy="1340.00" r="6" fill="#1d4ed8"/>
<text x="262.78" y="1326.00" text-anchor="middle" font-family="Arial" font-size="14" fill="#1e293b">0.00s</text>
<circle cx="395.56" cy="1339.59" r="6" fill="#1d4ed8"/>
<text x="395.56" y="1325.59" text-anchor="middle" font-family="Arial" font-size="14" fill="#1e293b">0.02s</text>
<circle cx="528.33" cy="1338.35" r="6" fill="#1d4ed8"/>
<text x="528.33" y="1324.35" text-anchor="middle" font-family="Arial" font-size="14" fill="#1e293b">0.08s</text>
<circle cx="661.11" cy="1339.17" r="6" fill="#1d4ed8"/>
<text x="661.11" y="1325.17" text-anchor="middle" font-family="Arial" font-size="14" fill="#1e293b">0.04s</text>
<circle cx="793.89" cy="1338.14" r="6" fill="#1d4ed8"/>
<text x="793.89" y="1324.14" text-anchor="middle" font-family="Arial" font-size="14" fill="#1e293b">0.09s</text>
<circle cx="926.67" cy="1333.59" r="6" fill="#1d4ed8"/>
<text x="926.67" y="1319.59" text-anchor="middle" font-family="Arial" font-size="14" fill="#1e293b">0.31s</text>
<circle cx="1059.44" cy="1333.80" r="6" fill="#1d4ed8"/>
<text x="1059.44" y="1319.80" text-anchor="middle" font-family="Arial" font-size="14" fill="#1e293b">0.30s</text>
<circle cx="1192.22" cy="1315.61" r="6" fill="#1d4ed8"/>
<text x="1192.22" y="1301.61" text-anchor="middle" font-family="Arial" font-size="14" fill="#1e293b">1.18s</text>
<circle cx="1325.00" cy="1320.16" r="6" fill="#1d4ed8"/>
<text x="1325.00" y="1306.16" text-anchor="middle" font-family="Arial" font-size="14" fill="#1e293b">0.96s</text>
<circle cx="1457.78" cy="1255.68" r="6" fill="#1d4ed8"/>
<text x="1457.78" y="1241.68" text-anchor="middle" font-family="Arial" font-size="14" fill="#1e293b">4.08s</text>
<circle cx="1590.56" cy="1238.32" r="6" fill="#1d4ed8"/>
<text x="1590.56" y="1224.32" text-anchor="middle" font-family="Arial" font-size="14" fill="#1e293b">4.92s</text>
<circle cx="1723.33" cy="1178.80" r="6" fill="#1d4ed8"/>
<text x="1723.33" y="1164.80" text-anchor="middle" font-family="Arial" font-size="14" fill="#1e293b">7.80s</text>
<circle cx="1856.11" cy="1052.94" r="6" fill="#1d4ed8"/>
<text x="1856.11" y="1038.94" text-anchor="middle" font-family="Arial" font-size="14" fill="#1e293b">13.89s</text>
<circle cx="1988.89" cy="709.67" r="6" fill="#1d4ed8"/>
<text x="1988.89" y="695.67" text-anchor="middle" font-family="Arial" font-size="14" fill="#1e293b">30.50s</text>
<circle cx="2121.67" cy="664.82" r="6" fill="#1d4ed8"/>
<text x="2121.67" y="650.82" text-anchor="middle" font-family="Arial" font-size="14" fill="#1e293b">32.67s</text>
<circle cx="2254.44" cy="721.24" r="6" fill="#1d4ed8"/>
<text x="2254.44" y="707.24" text-anchor="middle" font-family="Arial" font-size="14" fill="#1e293b">29.94s</text>
<circle cx="2387.22" cy="236.40" r="6" fill="#1d4ed8"/>
<text x="2387.22" y="222.40" text-anchor="middle" font-family="Arial" font-size="14" fill="#1e293b">53.40s</text>
<line x1="2513.00" y1="93.00" x2="2527.00" y2="107.00" stroke="#b91c1c" stroke-width="3"/>
<line x1="2513.00" y1="107.00" x2="2527.00" y2="93.00" stroke="#b91c1c" stroke-width="3"/>
<text x="2520.00" y="86.00" text-anchor="middle" font-family="Arial" font-size="14" fill="#991b1b">timeout</text>
<text x="1325.00" y="1440" text-anchor="middle" font-family="Arial" font-size="24" fill="#0f172a">Complexity (l=p=c=g)</text>
<text x="42" y="720.00" text-anchor="middle" font-family="Arial" font-size="24" fill="#0f172a" transform="rotate(-90,42,720.00)">Time (seconds)</text>
</svg>