<svg xmlns="http://www.w3.org/2000/svg" width="2600" height="1500">
<rect x="0" y="0" width="100%" height="100%" fill="#f8fafc"/>
<text x="130" y="52" font-family="Arial" font-size="34" fill="#0f172a">FF Benchmark (Complexity vs Time)</text>
<text x="130" y="84" font-family="Arial" font-size="20" fill="#334155">Complexity = l=p=c=g. Unsolved instances are shown at timeout line.</text>
<line x1="130" y1="1340" x2="2520" y2="1340" stroke="#334155" stroke-width="3"/>
<line x1="130" y1="1340" x2="130" y2="100" stroke="#334155" stroke-width="3"/>
<line x1="1325.00" y1="1340" x2="1325.00" y2="1354" stroke="#334155" stroke-width="2"/>
<text x="1325.00" y="1382" text-anchor="middle" font-family="Arial" font-size="18" fill="#334155">10</text>
<line x1="118" y1="1340.00" x2="130" y2="1340.00" stroke="#334155" stroke-width="1"/>
<line x1="130" y1="1340.00" x2="2520" y2="1340.00" stroke="#cbd5e1" stroke-width="1.4"/>
<text x="112" y="1346.00" text-anchor="end" font-family="Arial" font-size="16" fill="#334155">0</text>
<line x1="124" y1="1319.33" x2="130" y2="1319.33" stroke="#334155" stroke-width="1"/>
<line x1="130" y1="1319.33" x2="2520" y2="1319.33" stroke="#e2e8f0" stroke-width="0.8"/>
<line x1="124" y1="1298.67" x2="130" y2="1298.67" stroke="#334155" stroke-width="1"/>
<line x1="130" y1="1298.67" x2="2520" y2="1298.67" stroke="#e2e8f0" stroke-width="0.8"/>
<line x1="124" y1="1278.00" x2="130" y2="1278.00" stroke="#334155" stroke-width="1"/>
<line x1="130" y1="1278.00" x2="2520" y2="1278.00" stroke="#e2e8f0" stroke-width="0.8"/>
<line x1="124" y1="1257.33" x2="130" y2="1257.33" stroke="#334155" stroke-width="1"/>
<line x1="130" y1="1257.33" x2="2520" y2="1257.33" stroke="#e2e8f0" stroke-width="0.8"/>
<line x1="118" y1="1236.67" x2="130" y2="1236.67" stroke="#334155" stroke-width="1"/>
<line x1="130" y1="1236.67" x2="2520" y2="1236.67" stroke="#cbd5e1" stroke-width="1.4"/>
<text x="112" y="1242.67" text-anchor="end" font-family="Arial" font-size="16" fill="#334155">5</text>
<line x1="124" y1="1216.00" x2="130" y2="1216.00" stroke="#334155" stroke-width="1"/>
<line x1="130" y1="1216.00" x2="2520" y2="1216.00" stroke="#e2e8f0" stroke-width="0.8"/>
<line x1="124" y1="1195.33" x2="130" y2="1195.33" stroke="#334155" stroke-width="1"/>
<line x1="130" y1="1195.33" x2="2520" y2="1195.33" stroke="#e2e8f0" stroke-width="0.8"/>
<line x1="124" y1="1174.67" x2="130" y2="1174.67" stroke="#334155" stroke-width="1"/>
<line x1="130" y1="1174.67" x2="2520" y2="1174.67" stroke="#e2e8f0" stroke-width="0.8"/>
<line x1="124" y1="1154.00" x2="130" y2="1154.00" stroke="#334155" stroke-width="1"/>
<line x1="130" y1="1154.00" x2="2520" y2="1154.00" stroke="#e2e8f0" stroke-width="0.8"/>
<line x1="118" y1="1133.33" x2="130" y2="1133.33" stroke="#334155" stroke-width="1"/>
<line x1="130" y1="1133.33" x2="2520" y2="1133.33" stroke="#cbd5e1" stroke-width="1.4"/>
<text x="112" y="1139.33" text-anchor="end" font-family="Arial" font-size="16" fill="#334155">10</text>
<line x1="124" y1="1112.67" x2="130" y2="1112.67" stroke="#334155" stroke-width="1"/>
<line x1="130" y1="1112.67" x2="2520" y2="1112.67" stroke="#e2e8f0" stroke-width="0.8"/>
<line x1="124" y1="1092.00" x2="130" y2="1092.00" stroke="#334155" stroke-width="1"/>
<line x1="130" y1="1092.00" x2="2520" y2="1092.00" stroke="#e2e8f0" stroke-width="0.8"/>
<line x1="124" y1="1071.33" x2="130" y2="1071.33" stroke="#334155" stroke-width="1"/>
<line x1="130" y1="1071.33" x2="2520" y2="1071.33" stroke="#e2e8f0" stroke-width="0.8"/>
<line x1="124" y1="1050.67" x2="130" y2="1050.67" stroke="#334155" stroke-width="1"/>
<line x1="130" y1="1050.67" x2="2520" y2="1050.67" stroke="#e2e8f0" stroke-width="0.8"/>
<line x1="118" y1="1030.00" x2="130" y2="1030.00" stroke="#334155" stroke-width="1"/>
<line x1="130" y1="1030.00" x2="2520" y2="1030.00" stroke="#cbd5e1" stroke-width="1.4"/>
<text x="112" y="1036.00" text-anchor="end" font-family="Arial" font-size="16" fill="#334155">15</text>
<line x1="124" y1="1009.33" x2="130" y2="1009.33" stroke="#334155" stroke-width="1"/>
<line x1="130" y1="1009.33" x2="2520" y2="1009.33" stroke="#e2e8f0" stroke-width="0.8"/>
<line x1="124" y1="988.67" x2="130" y2="988.67" stroke="#334155" stroke-width="1"/>
<line x1="130" y1="988.67" x2="2520" y2="988.67" stroke="#e2e8f0" stroke-width="0.8"/>
<line x1="124" y1="968.00" x2="130" y2="968.00" stroke="#334155" stroke-width="1"/>
<line x1="130" y1="968.00" x2="2520" y2="968.00" stroke="#e2e8f0" stroke-width="0.8"/>
<line x1="124" y1="947.33" x2="130" y2="947.33" stroke="#334155" stroke-width="1"/>
<line x1="130" y1="947.33" x2="2520" y2="947.33" stroke="#e2e8f0" stroke-width="0.8"/>
<line x1="118" y1="926.67" x2="130" y2="926.67" stroke="#334155" stroke-width="1"/>
<line x1="130" y1="926.67" x2="2520" y2="926.67" stroke="#cbd5e1" stroke-width="1.4"/>
<text x="112" y="932.67" text-anchor="end" font-family="Arial" font-size="16" fill="#334155">20</text>
<line x1="124" y1="906.00" x2="130" y2="906.00" stroke="#334155" stroke-width="1"/>
<line x1="130" y1="906.00" x2="2520" y2="906.00" stroke="#e2e8f0" stroke-width="0.8"/>
<line x1="124" y1="885.33" x2="130" y2="885.33" stroke="#334155" stroke-width="1"/>
<line x1="130" y1="885.33" x2="2520" y2="885.33" stroke="#e2e8f0" stroke-width="0.8"/>
<line x1="124" y1="864.67" x2="130" y2="864.67" stroke="#334155" stroke-width="1"/>
<line x1="130" y1="864.67" x2="2520" y2="864.67" stroke="#e2e8f0" stroke-width="0.8"/>
<line x1="124" y1="844.00" x2="130" y2="844.00" stroke="#334155" stroke-width="1"/>
<line x1="130" y1="844.00" x2="2520" y2="844.00" stroke="#e2e8f0" stroke-width="0.8"/>
<line x1="118" y1="823.33" x2="130" y2="823.33" stroke="#334155" stroke-width="1"/>
<line x1="130" y1="823.33" x2="2520" y2="823.33" stroke="#cbd5e1" stroke-width="1.4"/>
<text x="112" y="829.33" text-anchor="end" font-family="Arial" font-size="16" fill="#334155">25</text>
<line x1="124" y1="802.67" x2="130" y2="802.67" stroke="#334155" stroke-width="1"/>
<line x1="130" y1="802.67" x2="2520" y2="802.67" stroke="#e2e8f0" stroke-width="0.8"/>
<line x1="124" y1="782.00" x2="130" y2="782.00" stroke="#334155" stroke-width="1"/>
<line x1="130" y1="782.00" x2="2520" y2="782.00" stroke="#e2e8f0" stroke-width="0.8"/>
<line x1="124" y1="761.33" x2="130" y2="761.33" stroke="#334155" stroke-width="1"/>
<line x1="130" y1="761.33" x2="2520" y2="761.33" stroke="#e2e8f0" stroke-width="0.8"/>
<line x1="124" y1="740.67" x2="130" y2="740.67" stroke="#334155" stroke-width="1"/>
<line x1="130" y1="740.67" x2="2520" y2="740.67" stroke="#e2e8f0" stroke-width="0.8"/>
<line x1="118" y1="720.00" x2="130" y2="720.00" stroke="#334155" stroke-width="1"/>
<line x1="130" y1="720.00" x2="2520" y2="720.00" stroke="#cbd5e1" stroke-width="1.4"/>
<text x="112" y="726.00" text-anchor="end" font-family="Arial" font-size="16" fill="#334155">30</text>
<line x1="124" y1="699.33" x2="130" y2="699.33" stroke="#334155" stroke-width="1"/>
<line x1="130" y1="699.33" x2="2520" y2="699.33" stroke="#e2e8f0" stroke-width="0.8"/>
<line x1="124" y1="678.67" x2="130" y2="678.67" stroke="#334155" stroke-width="1"/>
<line x1="130" y1="678.67" x2="2520" y2="678.67" stroke="#e2e8f0" stroke-width="0.8"/>
<line x1="124" y1="658.00" x2="130" y2="658.00" stroke="#334155" stroke-width="1"/>
<line x1="130" y1="658.00" x2="2520" y2="658.00" stroke="#e2e8f0" stroke-width="0.8"/>
<line x1="124" y1="637.33" x2="130" y2="637.33" stroke="#334155" stroke-width="1"/>
<line x1="130" y1="637.33" x2="2520" y2="637.33" stroke="#e2e8f0" stroke-width="0.8"/>
<line x1="118" y1="616.67" x2="130" y2="616.67" stroke="#334155" stroke-width="1"/>
<line x1="130" y1="616.67" x2="2520" y2="616.67" stroke="#cbd5e1" stroke-width="1.4"/>
<text x="112" y="622.67" text-anchor="end" font-family="Arial" font-size="16" fill="#334155">35</text>
<line x1="124" y1="596.00" x2="130" y2="596.00" stroke="#334155" stroke-width="1"/>
<line x1="130" y1="596.00" x2="2520" y2="596.00" stroke="#e2e8f0" stroke-width="0.8"/>
<line x1="124" y1="575.33" x2="130" y2="575.33" stroke="#334155" stroke-width="1"/>
<line x1="130" y1="575.33" x2="2520" y2="575.33" stroke="#e2e8f0" stroke-width="0.8"/>
<line x1="124" y1="554.67" x2="130" y2="554.67" stroke="#334155" stroke-width="1"/>
<line x1="130" y1="554.67" x2="2520" y2="554.67" stroke="#e2e8f0" stroke-width="0.8"/>
<line x1="124" y1="534.00" x2="130" y2="534.00" stroke="#334155" stroke-width="1"/>
<line x1="130" y1="534.00" x2="2520" y2="534.00" stroke="#e2e8f0" stroke-width="0.8"/>
<line x1="118" y1="513.33" x2="130" y2="513.33" stroke="#334155" stroke-width="1"/>
<line x1="130" y1="513.33" x2="2520" y2="513.33" stroke="#cbd5e1" stroke-width="1.4"/>
<text x="112" y="519.33" text-anchor="end" font-family="Arial" font-size="16" fill="#334155">40</text>
<line x1="124" y1="492.67" x2="130" y2="492.67" stroke="#334155" stroke-width="1"/>
<line x1="130" y1="492.67" x2="2520" y2="492.67" stroke="#e2e8f0" stroke-width="0.8"/>
<line x1="124" y1="472.00" x2="130" y2="472.00" stroke="#334155" stroke-width="1"/>
<line x1="130" y1="472.00" x2="2520" y2="472.00" stroke="#e2e8f0" stroke-width="0.8"/>
<line x1="124" y1="451.33" x2="130" y2="451.33" stroke="#334155" stroke-width="1"/>
<line x1="130" y1="451.33" x2="2520" y2="451.33" stroke="#e2e8f0" stroke-width="0.8"/>
<line x1="124" y1="430.67" x2="130" y2="430.67" stroke="#334155" stroke-width="1"/>
<line x1="130" y1="430.67" x2="2520" y2="430.67" stroke="#e2e8f0" stroke-width="0.8"/>
<line x1="118" y1="410.00" x2="130" y2="410.00" stroke="#334155" stroke-width="1"/>
<line x1="130" y1="410.00" x2="2520" y2="410.00" stroke="#cbd5e1" stroke-width="1.4"/>
<text x="112" y="416.00" text-anchor="end" font-family="Arial" font-size="16" fill="#334155">45</text>
<line x1="124" y1="389.33" x2="130" y2="389.33" stroke="#334155" stroke-width="1"/>
<line x1="130" y1="389.33" x2="2520" y2="389.33" stroke="#e2e8f0" stroke-width="0.8"/>
<line x1="124" y1="368.67" x2="130" y2="368.67" stroke="#334155" stroke-width="1"/>
<line x1="130" y1="368.67" x2="2520" y2="368.67" stroke="#e2e8f0" stroke-width="0.8"/>
<line x1="124" y1="348.00" x2="130" y2="348.00" stroke="#334155" stroke-width="1"/>
<line x1="130" y1="348.00" x2="2520" y2="348.00" stroke="#e2e8f0" stroke-width="0.8"/>
<line x1="124" y1="327.33" x2="130" y2="327.33" stroke="#334155" stroke-width="1"/>
<line x1="130" y1="327.33" x2="2520" y2="327.33" stroke="#e2e8f0" stroke-width="0.8"/>
<line x1="118" y1="306.67" x2="130" y2="306.67" stroke="#334155" stroke-width="1"/>
<line x1="130" y1="306.67" x2="2520" y2="306.67" stroke="#cbd5e1" stroke-width="1.4"/>
<text x="112" y="312.67" text-anchor="end" font-family="Arial" font-size="16" fill="#334155">50</text>
<line x1="124" y1="286.00" x2="130" y2="286.00" stroke="#334155" stroke-width="1"/>
<line x1="130" y1="286.00" x2="2520" y2="286.00" stroke="#e2e8f0" stroke-width="0.8"/>
<line x1="124" y1="265.33" x2="130" y2="265.33" stroke="#334155" stroke-width="1"/>
<line x1="130" y1="265.33" x2="2520" y2="265.33" stroke="#e2e8f0" stroke-width="0.8"/>
<line x1="124" y1="244.67" x2="130" y2="244.67" stroke="#334155" stroke-width="1"/>
<line x1="130" y1="244.67" x2="2520" y2="244.67" stroke="#e2e8f0" stroke-width="0.8"/>
<line x1="124" y1="224.00" x2="130" y2="224.00" stroke="#334155" stroke-width="1"/>
<line x1="130" y1="224.00" x2="2520" y2="224.00" stroke="#e2e8f0" stroke-width="0.8"/>
<line x1="118" y1="203.33" x2="130" y2="203.33" stroke="#334155" stroke-width="1"/>
<line x1="130" y1="203.33" x2="2520" y2="203.33" stroke="#cbd5e1" stroke-width="1.4"/>
<text x="112" y="209.33" text-anchor="end" font-family="Arial" font-size="16" fill="#334155">55</text>
<line x1="124" y1="182.67" x2="130" y2="182.67" stroke="#334155" stroke-width="1"/>
<line x1="130" y1="182.67" x2="2520" y2="182.67" stroke="#e2e8f0" stroke-width="0.8"/>
<line x1="124" y1="162.00" x2="130" y2="162.00" stroke="#334155" stroke-width="1"/>
<line x1="130" y1="162.00" x2="2520" y2="162.00" stroke="#e2e8f0" stroke-width="0.8"/>
<line x1="124" y1="141.33" x2="130" y2="141.33" stroke="#334155" stroke-width="1"/>
<line x1="130" y1="141.33" x2="2520" y2="141.33" stroke="#e2e8f0" stroke-width="0.8"/>
<line x1="124" y1="120.67" x2="130" y2="120.67" stroke="#334155" stroke-width="1"/>
<line x1="130" y1="120.67" x2="2520" y2="120.67" stroke="#e2e8f0" stroke-width="0.8"/>
<line x1="118" y1="100.00" x2="130" y2="100.00" stroke="#334155" stroke-width="1"/>
<line x1="130" y1="100.00" x2="2520" y2="100.00" stroke="#cbd5e1" stroke-width="1.4"/>
<text x="112" y="106.00" text-anchor="end" font-family="Arial" font-size="16" fill="#334155">60</text>
<polyline points="1325.00,1339.59" fill="none" stroke="#2563eb" stroke-width="3"/>
<circle cx="1325.00" cy="1339.59" r="6" fill="#1d4ed8"/>
<text x="1325.00" y="1325.59" text-anchor="middle" font-family="Arial" font-size="14" fill="#1e293b">0.02s</text>
<text x="1325.00" y="1440" text-anchor="middle" font-family="Arial" font-size="24" fill="#0f172a">Complexity (l=p=c=g)</text>
<text x="42" y="720.00" text-anchor="middle" font-family="Arial" font-size="24" fill="#0f172a" transform="rotate(-90,42,720.00)">Time (seconds)</text>
</svg>