<svg xmlns="http://www.w3.org/2000/svg" width="2600" height="1500">
<rect x="0" y="0" width="100%" height="100%" fill="#f8fafc"/>
<text x="130" y="52" font-family="Arial" font-size="34" fill="#0f172a">FF Benchmark (Complexity vs Time)</text>
<text x="130" y="84" font-family="Arial" font-size="20" fill="#334155">Complexity = l=p=c=g. Unsolved instances are shown at timeout line.</text>
<line x1="130" y1="1340" x2="2520" y2="1340" stroke="#334155" stroke-width="3"/>
<line x1="130" y1="1340" x2="130" y2="100" stroke="#334155" stroke-width="3"/>
<line x1="130.00" y1="1340" x2="130.00" y2="1354" stroke="#334155" stroke-width="2"/>
<text x="130.00" y="1382" text-anchor="middle" font-family="Arial" font-size="18" fill="#334155">4</text>
<line x1="262.78" y1="1340" x2="262.78" y2="1354" stroke="#334155" stroke-width="2"/>
<text x="262.78" y="1382" text-anchor="middle" font-family="Arial" font-size="18" fill="#334155">6</text>
<line x1="395.56" y1="1340" x2="395.56" y2="1354" stroke="#334155" stroke-width="2"/>
<text x="395.56" y="1382" text-anchor="middle" font-family="Arial" font-size="18" fill="#334155">8</text>
<line x1="528.33" y1="1340" x2="528.33" y2="1354" stroke="#334155" stroke-width="2"/>
<text x="528.33" y="1382" text-anchor="middle" font-family="Arial" font-size="18" fill="#334155">10</text>
<line x1="661.11" y1="1340" x2="661.11" y2="1354" stroke="#334155" stroke-width="2"/>
<text x="661.11" y="1382" text-anchor="middle" font-family="Arial" font-size="18" fill="#334155">12</text>
<line x1="793.89" y1="1340" x2="793.89" y2="1354" stroke="#334155" stroke-width="2"/>
<text x="793.89" y="1382" text-anchor="middle" font-family="Arial" font-size="18" fill="#334155">14</text>
<line x1="926.67" y1="1340" x2="926.67" y2="1354" stroke="#334155" stroke-width="2"/>
<text x="926.67" y="1382" text-anchor="middle" font-family="Arial" font-size="18" fill="#334155">16</text>
<line x1="1059.44" y1="1340" x2="1059.44" y2="1354" stroke="#334155" stroke-width="2"/>
<text x="1059.44" y="1382" text-anchor="middle" font-family="Arial" font-size="18" fill="#334155">18</text>
<line x1="1192.22" y1="1340" x2="1192.22" y2="1354" stroke="#334155" stroke-width="2"/>
<text x="1192.22" y="1382" text-anchor="middle" font-family="Arial" font-size="18" fill="#334155">20</text>
<line x1="1325.00" y1="1340" x2="1325.00" y2="1354" stroke="#334155" stroke-width="2"/>
<text x="1325.00" y="1382" text-anchor="middle" font-family="Arial" font-size="18" fill="#334155">22</text>
<line x1="1457.78" y1="1340" x2="1457.78" y2="1354" stroke="#334155" stroke-width="2"/>
<text x="1457.78" y="1382" text-anchor="middle" font-family="Arial" font-size="18" fill="#334155">24</text>
<line x1="1590.56" y1="1340" x2="1590.56" y2="1354" stroke="#334155" stroke-width="2"/>
<text x="1590.56" y="1382" text-anchor="middle" font-family="Arial" font-size="18" fill="#334155">26</text>
<line x1="1723.33" y1="1340" x2="1723.33" y2="1354" stroke="#334155" stroke-width="2"/>
<text x="1723.33" y="1382" text-anchor="middle" font-family="Arial" font-size="18" fill="#334155">28</text>
<line x1="1856.11" y1="1340" x2="1856.11" y2="1354" stroke="#334155" stroke-width="2"/>
<text x="1856.11" y="1382" text-anchor="middle" font-family="Arial" font-size="18" fill="#334155">30</text>
<line x1="1988.89" y1="1340" x2="1988.89" y2="1354" stroke="#334155" stroke-width="2"/>
<text x="1988.89" y="1382" text-anchor="middle" font-family="Arial" font-size="18" fill="#334155">32</text>
<line x1="2121.67" y1="1340" x2="2121.67" y2="1354" stroke="#334155" stroke-width="2"/>
<text x="2121.67" y="1382" text-anchor="middle" font-family="Arial" font-size="18" fill="#334155">34</text>
<line x1="2254.44" y1="1340" x2="2254.44" y2="1354" stroke="#334155" stroke-width="2"/>
<text x="2254.44" y="1382" text-anchor="middle" font-family="Arial" font-size="18" fill="#334155">36</text>
<line x1="2387.22" y1="1340" x2="2387.22" y2="1354" stroke="#334155" stroke-width="2"/>
<text x="2387.22" y="1382" text-anchor="middle" font-family="Arial" font-size="18" fill="#334155">38</text>
<line x1="2520.00" y1="1340" x2="2520.00" y2="1354" stroke="#334155" stroke-width="2"/>
<text x="2520.00" y="1382" text-anchor="middle" font-family="Arial" font-size="18" fill="#334155">40</text>
<line x1="118" y1="1340.00" x2="130" y2="1340.00" stroke="#334155" stroke-width="1"/>
<line x1="130" y1="1340.00" x2="2520" y2="1340.00" stroke="#cbd5e1" stroke-width="1.4"/>
<text x="112" y="1346.00" text-anchor="end" font-family="Arial" font-size="16" fill="#334155">0</text>
<line x1="124" y1="1329.67" x2="130" y2="1329.67" stroke="#334155" stroke-width="1"/>
<line x1="130" y1="1329.67" x2="2520" y2="1329.67" stroke="#e2e8f0" stroke-width="0.8"/>
<line x1="124" y1="1319.33" x2="130" y2="1319.33" stroke="#334155" stroke-width="1"/>
<line x1="130" y1="1319.33" x2="2520" y2="1319.33" stroke="#e2e8f0" stroke-width="0.8"/>
<line x1="124" y1="1309.00" x2="130" y2="1309.00" stroke="#334155" stroke-width="1"/>
<line x1="130" y1="1309.00" x2="2520" y2="1309.00" stroke="#e2e8f0" stroke-width="0.8"/>
<line x1="124" y1="1298.67" x2="130" y2="1298.67" stroke="#334155" stroke-width="1"/>
<line x1="130" y1="1298.67" x2="2520" y2="1298.67" stroke="#e2e8f0" stroke-width="0.8"/>
<line x1="118" y1="1288.33" x2="130" y2="1288.33" stroke="#334155" stroke-width="1"/>
<line x1="130" y1="1288.33" x2="2520" y2="1288.33" stroke="#cbd5e1" stroke-width="1.4"/>
<text x="112" y="1294.33" text-anchor="end" font-family="Arial" font-size="16" fill="#334155">5</text>
<line x1="124" y1="1278.00" x2="130" y2="1278.00" stroke="#334155" stroke-width="1"/>
<line x1="130" y1="1278.00" x2="2520" y2="1278.00" stroke="#e2e8f0" stroke-width="0.8"/>
<line x1="124" y1="1267.67" x2="130" y2="1267.67" stroke="#334155" stroke-width="1"/>
<line x1="130" y1="1267.67" x2="2520" y2="1267.67" stroke="#e2e8f0" stroke-width="0.8"/>
<line x1="124" y1="1257.33" x2="130" y2="1257.33" stroke="#334155" stroke-width="1"/>
<line x1="130" y1="1257.33" x2="2520" y2="1257.33" stroke="#e2e8f0" stroke-width="0.8"/>
<line x1="124" y1="1247.00" x2="130" y2="1247.00" stroke="#334155" stroke-width="1"/>
<line x1="130" y1="1247.00" x2="2520" y2="1247.00" stroke="#e2e8f0" stroke-width="0.8"/>
<line x1="118" y1="1236.67" x2="130" y2="1236.67" stroke="#334155" stroke-width="1"/>
<line x1="130" y1="1236.67" x2="2520" y2="1236.67" stroke="#cbd5e1" stroke-width="1.4"/>
<text x="112" y="1242.67" text-anchor="end" font-family="Arial" font-size="16" fill="#334155">10</text>
<line x1="124" y1="1226.33" x2="130" y2="1226.33" stroke="#334155" stroke-width="1"/>
<line x1="130" y1="1226.33" x2="2520" y2="1226.33" stroke="#e2e8f0" stroke-width="0.8"/>
<line x1="124" y1="1216.00" x2="130" y2="1216.00" stroke="#334155" stroke-width="1"/>
<line x1="130" y1="1216.00" x2="2520" y2="1216.00" stroke="#e2e8f0" stroke-width="0.8"/>
<line x1="124" y1="1205.67" x2="130" y2="1205.67" stroke="#334155" stroke-width="1"/>
<line x1="130" y1="1205.67" x2="2520" y2="1205.67" stroke="#e2e8f0" stroke-width="0.8"/>
<line x1="124" y1="1195.33" x2="130" y2="1195.33" stroke="#334155" stroke-width="1"/>
<line x1="130" y1="1195.33" x2="2520" y2="1195.33" stroke="#e2e8f0" stroke-width="0.8"/>
<line x1="118" y1="1185.00" x2="130" y2="1185.00" stroke="#334155" stroke-width="1"/>
<line x1="130" y1="1185.00" x2="2520" y2="1185.00" stroke="#cbd5e1" stroke-width="1.4"/>
<text x="112" y="1191.00" text-anchor="end" font-family="Arial" font-size="16" fill="#334155">15</text>
<line x1="124" y1="1174.67" x2="130" y2="1174.67" stroke="#334155" stroke-width="1"/>
<line x1="130" y1="1174.67" x2="2520" y2="1174.67" stroke="#e2e8f0" stroke-width="0.8"/>
<line x1="124" y1="1164.33" x2="130" y2="1164.33" stroke="#334155" stroke-width="1"/>
<line x1="130" y1="1164.33" x2="2520" y2="1164.33" stroke="#e2e8f0" stroke-width="0.8"/>
<line x1="124" y1="1154.00" x2="130" y2="1154.00" stroke="#334155" stroke-width="1"/>
<line x1="130" y1="1154.00" x2="2520" y2="1154.00" stroke="#e2e8f0" stroke-width="0.8"/>
<line x1="124" y1="1143.67" x2="130" y2="1143.67" stroke="#334155" stroke-width="1"/>
<line x1="130" y1="1143.67" x2="2520" y2="1143.67" stroke="#e2e8f0" stroke-width="0.8"/>
<line x1="118" y1="1133.33" x2="130" y2="1133.33" stroke="#334155" stroke-width="1"/>
<line x1="130" y1="1133.33" x2="2520" y2="1133.33" stroke="#cbd5e1" stroke-width="1.4"/>
<text x="112" y="1139.33" text-anchor="end" font-family="Arial" font-size="16" fill="#334155">20</text>
<line x1="124" y1="1123.00" x2="130" y2="1123.00" stroke="#334155" stroke-width="1"/>
<line x1="130" y1="1123.00" x2="2520" y2="1123.00" stroke="#e2e8f0" stroke-width="0.8"/>
<line x1="124" y1="1112.67" x2="130" y2="1112.67" stroke="#334155" stroke-width="1"/>
<line x1="130" y1="1112.67" x2="2520" y2="1112.67" stroke="#e2e8f0" stroke-width="0.8"/>
<line x1="124" y1="1102.33" x2="130" y2="1102.33" stroke="#334155" stroke-width="1"/>
<line x1="130" y1="1102.33" x2="2520" y2="1102.33" stroke="#e2e8f0" stroke-width="0.8"/>
<line x1="124" y1="1092.00" x2="130" y2="1092.00" stroke="#334155" stroke-width="1"/>
<line x1="130" y1="1092.00" x2="2520" y2="1092.00" stroke="#e2e8f0" stroke-width="0.8"/>
<line x1="118" y1="1081.67" x2="130" y2="1081.67" stroke="#334155" stroke-width="1"/>
<line x1="130" y1="1081.67" x2="2520" y2="1081.67" stroke="#cbd5e1" stroke-width="1.4"/>
<text x="112" y="1087.67" text-anchor="end" font-family="Arial" font-size="16" fill="#334155">25</text>
<line x1="124" y1="1071.33" x2="130" y2="1071.33" stroke="#334155" stroke-width="1"/>
<line x1="130" y1="1071.33" x2="2520" y2="1071.33" stroke="#e2e8f0" stroke-width="0.8"/>
<line x1="124" y1="1061.00" x2="130" y2="1061.00" stroke="#334155" stroke-width="1"/>
<line x1="130" y1="1061.00" x2="2520" y2="1061.00" stroke="#e2e8f0" stroke-width="0.8"/>
<line x1="124" y1="1050.67" x2="130" y2="1050.67" stroke="#334155" stroke-width="1"/>
<line x1="130" y1="1050.67" x2="2520" y2="1050.67" stroke="#e2e8f0" stroke-width="0.8"/>
<line x1="124" y1="1040.33" x2="130" y2="1040.33" stroke="#334155" stroke-width="1"/>
<line x1="130" y1="1040.33" x2="2520" y2="1040.33" stroke="#e2e8f0" stroke-width="0.8"/>
<line x1="118" y1="1030.00" x2="130" y2="1030.00" stroke="#334155" stroke-width="1"/>
<line x1="130" y1="1030.00" x2="2520" y2="1030.00" stroke="#cbd5e1" stroke-width="1.4"/>
<text x="112" y="1036.00" text-anchor="end" font-family="Arial" font-size="16" fill="#334155">30</text>
<line x1="124" y1="1019.67" x2="130" y2="1019.67" stroke="#334155" stroke-width="1"/>
<line x1="130" y1="1019.67" x2="2520" y2="1019.67" stroke="#e2e8f0" stroke-width="0.8"/>
<line x1="124" y1="1009.33" x2="130" y2="1009.33" stroke="#334155" stroke-width="1"/>
<line x1="130" y1="1009.33" x2="2520" y2="1009.33" stroke="#e2e8f0" stroke-width="0.8"/>
<line x1="124" y1="999.00" x2="130" y2="999.00" stroke="#334155" stroke-width="1"/>
<line x1="130" y1="999.00" x2="2520" y2="999.00" stroke="#e2e8f0" stroke-width="0.8"/>
<line x1="124" y1="988.67" x2="130" y2="988.67" stroke="#334155" stroke-width="1"/>
<line x1="130" y1="988.67" x2="2520" y2="988.67" stroke="#e2e8f0" stroke-width="0.8"/>
<line x1="118" y1="978.33" x2="130" y2="978.33" stroke="#334155" stroke-width="1"/>
<line x1="130" y1="978.33" x2="2520" y2="978.33" stroke="#cbd5e1" stroke-width="1.4"/>
<text x="112" y="984.33" text-anchor="end" font-family="Arial" font-size="16" fill="#334155">35</text>
<line x1="124" y1="968.00" x2="130" y2="968.00" stroke="#334155" stroke-width="1"/>
<line x1="130" y1="968.00" x2="2520" y2="968.00" stroke="#e2e8f0" stroke-width="0.8"/>
<line x1="124" y1="957.67" x2="130" y2="957.67" stroke="#334155" stroke-width="1"/>
<line x1="130" y1="957.67" x2="2520" y2="957.67" stroke="#e2e8f0" stroke-width="0.8"/>
<line x1="124" y1="947.33" x2="130" y2="947.33" stroke="#334155" stroke-width="1"/>
<line x1="130" y1="947.33" x2="2520" y2="947.33" stroke="#e2e8f0" stroke-width="0.8"/>
<line x1="124" y1="937.00" x2="130" y2="937.00" stroke="#334155" stroke-width="1"/>
<line x1="130" y1="937.00" x2="2520" y2="937.00" stroke="#e2e8f0" stroke-width="0.8"/>
<line x1="118" y1="926.67" x2="130" y2="926.67" stroke="#334155" stroke-width="1"/>
<line x1="130" y1="926.67" x2="2520" y2="926.67" stroke="#cbd5e1" stroke-width="1.4"/>
<text x="112" y="932.67" text-anchor="end" font-family="Arial" font-size="16" fill="#334155">40</text>
<line x1="124" y1="916.33" x2="130" y2="916.33" stroke="#334155" stroke-width="1"/>
<line x1="130" y1="916.33" x2="2520" y2="916.33" stroke="#e2e8f0" stroke-width="0.8"/>
<line x1="124" y1="906.00" x2="130" y2="906.00" stroke="#334155" stroke-width="1"/>
<line x1="130" y1="906.00" x2="2520" y2="906.00" stroke="#e2e8f0" stroke-width="0.8"/>
<line x1="124" y1="895.67" x2="130" y2="895.67" stroke="#334155" stroke-width="1"/>
<line x1="130" y1="895.67" x2="2520" y2="895.67" stroke="#e2e8f0" stroke-width="0.8"/>
<line x1="124" y1="885.33" x2="130" y2="885.33" stroke="#334155" stroke-width="1"/>
<line x1="130" y1="885.33" x2="2520" y2="885.33" stroke="#e2e8f0" stroke-width="0.8"/>
<line x1="118" y1="875.00" x2="130" y2="875.00" stroke="#334155" stroke-width="1"/>
<line x1="130" y1="875.00" x2="2520" y2="875.00" stroke="#cbd5e1" stroke-width="1.4"/>
<text x="112" y="881.00" text-anchor="end" font-family="Arial" font-size="16" fill="#334155">45</text>
<line x1="124" y1="864.67" x2="130" y2="864.67" stroke="#334155" stroke-width="1"/>
<line x1="130" y1="864.67" x2="2520" y2="864.67" stroke="#e2e8f0" stroke-width="0.8"/>
<line x1="124" y1="854.33" x2="130" y2="854.33" stroke="#334155" stroke-width="1"/>
<line x1="130" y1="854.33" x2="2520" y2="854.33" stroke="#e2e8f0" stroke-width="0.8"/>
<line x1="124" y1="844.00" x2="130" y2="844.00" stroke="#334155" stroke-width="1"/>
<line x1="130" y1="844.00" x2="2520" y2="844.00" stroke="#e2e8f0" stroke-width="0.8"/>
<line x1="124" y1="833.67" x2="130" y2="833.67" stroke="#334155" stroke-width="1"/>
<line x1="130" y1="833.67" x2="2520" y2="833.67" stroke="#e2e8f0" stroke-width="0.8"/>
<line x1="118" y1="823.33" x2="130" y2="823.33" stroke="#334155" stroke-width="1"/>
<line x1="130" y1="823.33" x2="2520" y2="823.33" stroke="#cbd5e1" stroke-width="1.4"/>
<text x="112" y="829.33" text-anchor="end" font-family="Arial" font-size="16" fill="#334155">50</text>
<line x1="124" y1="813.00" x2="130" y2="813.00" stroke="#334155" stroke-width="1"/>
<line x1="130" y1="813.00" x2="2520" y2="813.00" stroke="#e2e8f0" stroke-width="0.8"/>
<line x1="124" y1="802.67" x2="130" y2="802.67" stroke="#334155" stroke-width="1"/>
<line x1="130" y1="802.67" x2="2520" y2="802.67" stroke="#e2e8f0" stroke-width="0.8"/>
<line x1="124" y1="792.33" x2="130" y2="792.33" stroke="#334155" stroke-width="1"/>
<line x1="130" y1="792.33" x2="2520" y2="792.33" stroke="#e2e8f0" stroke-width="0.8"/>
<line x1="124" y1="782.00" x2="130" y2="782.00" stroke="#334155" stroke-width="1"/>
<line x1="130" y1="782.00" x2="2520" y2="782.00" stroke="#e2e8f0" stroke-width="0.8"/>
<line x1="118" y1="771.67" x2="130" y2="771.67" stroke="#334155" stroke-width="1"/>
<line x1="130" y1="771.67" x2="2520" y2="771.67" stroke="#cbd5e1" stroke-width="1.4"/>
<text x="112" y="777.67" text-anchor="end" font-family="Arial" font-size="16" fill="#334155">55</text>
<line x1="124" y1="761.33" x2="130" y2="761.33" stroke="#334155" stroke-width="1"/>
<line x1="130" y1="761.33" x2="2520" y2="761.33" stroke="#e2e8f0" stroke-width="0.8"/>
<line x1="124" y1="751.00" x2="130" y2="751.00" stroke="#334155" stroke-width="1"/>
<line x1="130" y1="751.00" x2="2520" y2="751.00" stroke="#e2e8f0" stroke-width="0.8"/>
<line x1="124" y1="740.67" x2="130" y2="740.67" stroke="#334155" stroke-width="1"/>
<line x1="130" y1="740.67" x2="2520" y2="740.67" stroke="#e2e8f0" stroke-width="0.8"/>
<line x1="124" y1="730.33" x2="130" y2="730.33" stroke="#334155" stroke-width="1"/>
<line x1="130" y1="730.33" x2="2520" y2="730.33" stroke="#e2e8f0" stroke-width="0.8"/>
<line x1="118" y1="720.00" x2="130" y2="720.00" stroke="#334155" stroke-width="1"/>
<line x1="130" y1="720.00" x2="2520" y2="720.00" stroke="#cbd5e1" stroke-width="1.4"/>
<text x="112" y="726.00" text-anchor="end" font-family="Arial" font-size="16" fill="#334155">60</text>
<line x1="124" y1="709.67" x2="130" y2="709.67" stroke="#334155" stroke-width="1"/>
<line x1="130" y1="709.67" x2="2520" y2="709.67" stroke="#e2e8f0" stroke-width="0.8"/>
<line x1="124" y1="699.33" x2="130" y2="699.33" stroke="#334155" stroke-width="1"/>
<line x1="130" y1="699.33" x2="2520" y2="699.33" stroke="#e2e8f0" stroke-width="0.8"/>
<line x1="124" y1="689.00" x2="130" y2="689.00" stroke="#334155" stroke-width="1"/>
<line x1="130" y1="689.00" x2="2520" y2="689.00" stroke="#e2e8f0" stroke-width="0.8"/>
<line x1="124" y1="678.67" x2="130" y2="678.67" stroke="#334155" stroke-width="1"/>
<line x1="130" y1="678.67" x2="2520" y2="678.67" stroke="#e2e8f0" stroke-width="0.8"/>
<line x1="118" y1="668.33" x2="130" y2="668.33" stroke="#334155" stroke-width="1"/>
<line x1="130" y1="668.33" x2="2520" y2="668.33" stroke="#cbd5e1" stroke-width="1.4"/>
<text x="112" y="674.33" text-anchor="end" font-family="Arial" font-size="16" fill="#334155">65</text>
<line x1="124" y1="658.00" x2="130" y2="658.00" stroke="#334155" stroke-width="1"/>
<line x1="130" y1="658.00" x2="2520" y2="658.00" stroke="#e2e8f0" stroke-width="0.8"/>
<line x1="124" y1="647.67" x2="130" y2="647.67" stroke="#334155" stroke-width="1"/>
<line x1="130" y1="647.67" x2="2520" y2="647.67" stroke="#e2e8f0" stroke-width="0.8"/>
<line x1="124" y1="637.33" x2="130" y2="637.33" stroke="#334155" stroke-width="1"/>
<line x1="130" y1="637.33" x2="2520" y2="637.33" stroke="#e2e8f0" stroke-width="0.8"/>
<line x1="124" y1="627.00" x2="130" y2="627.00" stroke="#334155" stroke-width="1"/>
<line x1="130" y1="627.00" x2="2520" y2="627.00" stroke="#e2e8f0" stroke-width="0.8"/>
<line x1="118" y1="616.67" x2="130" y2="616.67" stroke="#334155" stroke-width="1"/>
<line x1="130" y1="616.67" x2="2520" y2="616.67" stroke="#cbd5e1" stroke-width="1.4"/>
<text x="112" y="622.67" text-anchor="end" font-family="Arial" font-size="16" fill="#334155">70</text>
<line x1="124" y1="606.33" x2="130" y2="606.33" stroke="#334155" stroke-width="1"/>
<line x1="130" y1="606.33" x2="2520" y2="606.33" stroke="#e2e8f0" stroke-width="0.8"/>
<line x1="124" y1="596.00" x2="130" y2="596.00" stroke="#334155" stroke-width="1"/>
<line x1="130" y1="596.00" x2="2520" y2="596.00" stroke="#e2e8f0" stroke-width="0.8"/>
<line x1="124" y1="585.67" x2="130" y2="585.67" stroke="#334155" stroke-width="1"/>
<line x1="130" y1="585.67" x2="2520" y2="585.67" stroke="#e2e8f0" stroke-width="0.8"/>
<line x1="124" y1="575.33" x2="130" y2="575.33" stroke="#334155" stroke-width="1"/>
<line x1="130" y1="575.33" x2="2520" y2="575.33" stroke="#e2e8f0" stroke-width="0.8"/>
<line x1="118" y1="565.00" x2="130" y2="565.00" stroke="#334155" stroke-width="1"/>
<line x1="130" y1="565.00" x2="2520" y2="565.00" stroke="#cbd5e1" stroke-width="1.4"/>
<text x="112" y="571.00" text-anchor="end" font-family="Arial" font-size="16" fill="#334155">75</text>
<line x1="124" y1="554.67" x2="130" y2="554.67" stroke="#334155" stroke-width="1"/>
<line x1="130" y1="554.67" x2="2520" y2="554.67" stroke="#e2e8f0" stroke-width="0.8"/>
<line x1="124" y1="544.33" x2="130" y2="544.33" stroke="#334155" stroke-width="1"/>
<line x1="130" y1="544.33" x2="2520" y2="544.33" stroke="#e2e8f0" stroke-width="0.8"/>
<line x1="124" y1="534.00" x2="130" y2="534.00" stroke="#334155" stroke-width="1"/>
<line x1="130" y1="534.00" x2="2520" y2="534.00" stroke="#e2e8f0" stroke-width="0.8"/>
<line x1="124" y1="523.67" x2="130" y2="523.67" stroke="#334155" stroke-width="1"/>
<line x1="130" y1="523.67" x2="2520" y2="523.67" stroke="#e2e8f0" stroke-width="0.8"/>
<line x1="118" y1="513.33" x2="130" y2="513.33" stroke="#334155" stroke-width="1"/>
<line x1="130" y1="513.33" x2="2520" y2="513.33" stroke="#cbd5e1" stroke-width="1.4"/>
<text x="112" y="519.33" text-anchor="end" font-family="Arial" font-size="16" fill="#334155">80</text>
<line x1="124" y1="503.00" x2="130" y2="503.00" stroke="#334155" stroke-width="1"/>
<line x1="130" y1="503.00" x2="2520" y2="503.00" stroke="#e2e8f0" stroke-width="0.8"/>
<line x1="124" y1="492.67" x2="130" y2="492.67" stroke="#334155" stroke-width="1"/>
<line x1="130" y1="492.67" x2="2520" y2="492.67" stroke="#e2e8f0" stroke-width="0.8"/>
<line x1="124" y1="482.33" x2="130" y2="482.33" stroke="#334155" stroke-width="1"/>
<line x1="130" y1="482.33" x2="2520" y2="482.33" stroke="#e2e8f0" stroke-width="0.8"/>
<line x1="124" y1="472.00" x2="130" y2="472.00" stroke="#334155" stroke-width="1"/>
<line x1="130" y1="472.00" x2="2520" y2="472.00" stroke="#e2e8f0" stroke-width="0.8"/>
<line x1="118" y1="461.67" x2="130" y2="461.67" stroke="#334155" stroke-width="1"/>
<line x1="130" y1="461.67" x2="2520" y2="461.67" stroke="#cbd5e1" stroke-width="1.4"/>
<text x="112" y="467.67" text-anchor="end" font-family="Arial" font-size="16" fill="#334155">85</text>
<line x1="124" y1="451.33" x2="130" y2="451.33" stroke="#334155" stroke-width="1"/>
<line x1="130" y1="451.33" x2="2520" y2="451.33" stroke="#e2e8f0" stroke-width="0.8"/>
<line x1="124" y1="441.00" x2="130" y2="441.00" stroke="#334155" stroke-width="1"/>
<line x1="130" y1="441.00" x2="2520" y2="441.00" stroke="#e2e8f0" stroke-width="0.8"/>
<line x1="124" y1="430.67" x2="130" y2="430.67" stroke="#334155" stroke-width="1"/>
<line x1="130" y1="430.67" x2="2520" y2="430.67" stroke="#e2e8f0" stroke-width="0.8"/>
<line x1="124" y1="420.33" x2="130" y2="420.33" stroke="#334155" stroke-width="1"/>
<line x1="130" y1="420.33" x2="2520" y2="420.33" stroke="#e2e8f0" stroke-width="0.8"/>
<line x1="118" y1="410.00" x2="130" y2="410.00" stroke="#334155" stroke-width="1"/>
<line x1="130" y1="410.00" x2="2520" y2="410.00" stroke="#cbd5e1" stroke-width="1.4"/>
<text x="112" y="416.00" text-anchor="end" font-family="Arial" font-size="16" fill="#334155">90</text>
<line x1="124" y1="399.67" x2="130" y2="399.67" stroke="#334155" stroke-width="1"/>
<line x1="130" y1="399.67" x2="2520" y2="399.67" stroke="#e2e8f0" stroke-width="0.8"/>
<line x1="124" y1="389.33" x2="130" y2="389.33" stroke="#334155" stroke-width="1"/>
<line x1="130" y1="389.33" x2="2520" y2="389.33" stroke="#e2e8f0" stroke-width="0.8"/>
<line x1="124" y1="379.00" x2="130" y2="379.00" stroke="#334155" stroke-width="1"/>
<line x1="130" y1="379.00" x2="2520" y2="379.00" stroke="#e2e8f0" stroke-width="0.8"/>
<line x1="124" y1="368.67" x2="130" y2="368.67" stroke="#334155" stroke-width="1"/>
<line x1="130" y1="368.67" x2="2520" y2="368.67" stroke="#e2e8f0" stroke-width="0.8"/>
<line x1="118" y1="358.33" x2="130" y2="358.33" stroke="#334155" stroke-width="1"/>
<line x1="130" y1="358.33" x2="2520" y2="358.33" stroke="#cbd5e1" stroke-width="1.4"/>
<text x="112" y="364.33" text-anchor="end" font-family="Arial" font-size="16" fill="#334155">95</text>
<line x1="124" y1="348.00" x2="130" y2="348.00" stroke="#334155" stroke-width="1"/>
<line x1="130" y1="348.00" x2="2520" y2="348.00" stroke="#e2e8f0" stroke-width="0.8"/>
<line x1="124" y1="337.67" x2="130" y2="337.67" stroke="#334155" stroke-width="1"/>
<line x1="130" y1="337.67" x2="2520" y2="337.67" stroke="#e2e8f0" stroke-width="0.8"/>
<line x1="124" y1="327.33" x2="130" y2="327.33" stroke="#334155" stroke-width="1"/>
<line x1="130" y1="327.33" x2="2520" y2="327.33" stroke="#e2e8f0" stroke-width="0.8"/>
<line x1="124" y1="317.00" x2="130" y2="317.00" stroke="#334155" stroke-width="1"/>
<line x1="130" y1="317.00" x2="2520" y2="317.00" stroke="#e2e8f0" stroke-width="0.8"/>
<line x1="118" y1="306.67" x2="130" y2="306.67" stroke="#334155" stroke-width="1"/>
<line x1="130" y1="306.67" x2="2520" y2="306.67" stroke="#cbd5e1" stroke-width="1.4"/>
<text x="112" y="312.67" text-anchor="end" font-family="Arial" font-size="16" fill="#334155">100</text>
<line x1="124" y1="296.33" x2="130" y2="296.33" stroke="#334155" stroke-width="1"/>
<line x1="130" y1="296.33" x2="2520" y2="296.33" stroke="#e2e8f0" stroke-width="0.8"/>
<line x1="124" y1="286.00" x2="130" y2="286.00" stroke="#334155" stroke-width="1"/>
<line x1="130" y1="286.00" x2="2520" y2="286.00" stroke="#e2e8f0" stroke-width="0.8"/>
<line x1="124" y1="275.67" x2="130" y2="275.67" stroke="#334155" stroke-width="1"/>
<line x1="130" y1="275.67" x2="2520" y2="275.67" stroke="#e2e8f0" stroke-width="0.8"/>
<line x1="124" y1="265.33" x2="130" y2="265.33" stroke="#334155" stroke-width="1"/>
<line x1="130" y1="265.33" x2="2520" y2="265.33" stroke="#e2e8f0" stroke-width="0.8"/>
<line x1="118" y1="255.00" x2="130" y2="255.00" stroke="#334155" stroke-width="1"/>
<line x1="130" y1="255.00" x2="2520" y2="255.00" stroke="#cbd5e1" stroke-width="1.4"/>
<text x="112" y="261.00" text-anchor="end" font-family="Arial" font-size="16" fill="#334155">105</text>
<line x1="124" y1="244.67" x2="130" y2="244.67" stroke="#334155" stroke-width="1"/>
<line x1="130" y1="244.67" x2="2520" y2="244.67" stroke="#e2e8f0" stroke-width="0.8"/>
<line x1="124" y1="234.33" x2="130" y2="234.33" stroke="#334155" stroke-width="1"/>
<line x1="130" y1="234.33" x2="2520" y2="234.33" stroke="#e2e8f0" stroke-width="0.8"/>
<line x1="124" y1="224.00" x2="130" y2="224.00" stroke="#334155" stroke-width="1"/>
<line x1="130" y1="224.00" x2="2520" y2="224.00" stroke="#e2e8f0" stroke-width="0.8"/>
<line x1="124" y1="213.67" x2="130" y2="213.67" stroke="#334155" stroke-width="1"/>
<line x1="130" y1="213.67" x2="2520" y2="213.67" stroke="#e2e8f0" stroke-width="0.8"/>
<line x1="118" y1="203.33" x2="130" y2="203.33" stroke="#334155" stroke-width="1"/>
<line x1="130" y1="203.33" x2="2520" y2="203.33" stroke="#cbd5e1" stroke-width="1.4"/>
<text x="112" y="209.33" text-anchor="end" font-family="Arial" font-size="16" fill="#334155">110</text>
<line x1="124" y1="193.00" x2="130" y2="193.00" stroke="#334155" stroke-width="1"/>
<line x1="130" y1="193.00" x2="2520" y2="193.00" stroke="#e2e8f0" stroke-width="0.8"/>
<line x1="124" y1="182.67" x2="130" y2="182.67" stroke="#334155" stroke-width="1"/>
<line x1="130" y1="182.67" x2="2520" y2="182.67" stroke="#e2e8f0" stroke-width="0.8"/>
<line x1="124" y1="172.33" x2="130" y2="172.33" stroke="#334155" stroke-width="1"/>
<line x1="130" y1="172.33" x2="2520" y2="172.33" stroke="#e2e8f0" stroke-width="0.8"/>
<line x1="124" y1="162.00" x2="130" y2="162.00" stroke="#334155" stroke-width="1"/>
<line x1="130" y1="162.00" x2="2520" y2="162.00" stroke="#e2e8f0" stroke-width="0.8"/>
<line x1="118" y1="151.67" x2="130" y2="151.67" stroke="#334155" stroke-width="1"/>
<line x1="130" y1="151.67" x2="2520" y2="151.67" stroke="#cbd5e1" stroke-width="1.4"/>
<text x="112" y="157.67" text-anchor="end" font-family="Arial" font-size="16" fill="#334155">115</text>
<line x1="124" y1="141.33" x2="130" y2="141.33" stroke="#334155" stroke-width="1"/>
<line x1="130" y1="141.33" x2="2520" y2="141.33" stroke="#e2e8f0" stroke-width="0.8"/>
<line x1="124" y1="131.00" x2="130" y2="131.00" stroke="#334155" stroke-width="1"/>
<line x1="130" y1="131.00" x2="2520" y2="131.00" stroke="#e2e8f0" stroke-width="0.8"/>
<line x1="124" y1="120.67" x2="130" y2="120.67" stroke="#334155" stroke-width="1"/>
<line x1="130" y1="120.67" x2="2520" y2="120.67" stroke="#e2e8f0" stroke-width="0.8"/>
<line x1="124" y1="110.33" x2="130" y2="110.33" stroke="#334155" stroke-width="1"/>
<line x1="130" y1="110.33" x2="2520" y2="110.33" stroke="#e2e8f0" stroke-width="0.8"/>
<line x1="118" y1="100.00" x2="130" y2="100.00" stroke="#334155" stroke-width="1"/>
<line x1="130" y1="100.00" x2="2520" y2="100.00" stroke="#cbd5e1" stroke-width="1.4"/>
<text x="112" y="106.00" text-anchor="end" font-family="Arial" font-size="16" fill="#334155">120</text>
<polyline points="130.00,1340.00 262.78,1340.00 395.56,1340.00 528.33,1339.90 661.11,1339.79 793.89,1339.38 926.67,1338.04 1059.44,1338.14 1192.22,1334.83 1325.00,1332.04 1457.78,1322.33 1590.56,1300.84 1723.33,1310.45 1856.11,1300.11 1988.89,1298.05 2121.67,1278.10 2254.44,1196.16 2387.22,1152.14 2520.00,906.21" fill="none" stroke="#2563eb" stroke-width="3"/>
<circle cx="130.00" cy="1340.00" r="6" fill="#1d4ed8"/>
<text x="130.00" y="1326.00" text-anchor="middle" font-family="Arial" font-size="14" fill="#1e293b">0.00s</text>
<circle cx="262.78" cy="1340.00" r="6" fill="#1d4ed8"/>
<text x="262.78" y="1326.00" text-anchor="middle" font-family="Arial" font-size="14" fill="#1e293b">0.00s</text>
<circle cx="395.56" cy="1340.00" r="6" fill="#1d4ed8"/>
<text x="395.56" y="1326.00" text-anchor="middle" font-family="Arial" font-size="14" fill="#1e293b">0.00s</text>
<circle cx="528.33" cy="1339.90" r="6" fill="#1d4ed8"/>
<text x="528.33" y="1325.90" text-anchor="middle" font-family="Arial" font-size="14" fill="#1e293b">0.01s</text>
<circle cx="661.11" cy="1339.79" r="6" fill="#1d4ed8"/>
<text x="661.11" y="1325.79" text-anchor="middle" font-family="Arial" font-size="14" fill="#1e293b">0.02s</text>
<circle cx="793.89" cy="1339.38" r="6" fill="#1d4ed8"/>
<text x="793.89" y="1325.38" text-anchor="middle" font-family="Arial" font-size="14" fill="#1e293b">0.06s</text>
<circle cx="926.67" cy="1338.04" r="6" fill="#1d4ed8"/>
<text x="926.67" y="1324.04" text-anchor="middle" font-family="Arial" font-size="14" fill="#1e293b">0.19s</text>
<circle cx="1059.44" cy="1338.14" r="6" fill="#1d4ed8"/>
<text x="1059.44" y="1324.14" text-anchor="middle" font-family="Arial" font-size="14" fill="#1e293b">0.18s</text>
<circle cx="1192.22" cy="1334.83" r="6" fill="#1d4ed8"/>
<text x="1192.22" y="1320.83" text-anchor="middle" font-family="Arial" font-size="14" fill="#1e293b">0.50s</text>
<circle cx="1325.00" cy="1332.04" r="6" fill="#1d4ed8"/>
<text x="1325.00" y="1318.04" text-anchor="middle" font-family="Arial" font-size="14" fill="#1e293b">0.77s</text>
<circle cx="1457.78" cy="1322.33" r="6" fill="#1d4ed8"/>
<text x="1457.78" y="1308.33" text-anchor="middle" font-family="Arial" font-size="14" fill="#1e293b">1.71s</text>
<circle cx="1590.56" cy="1300.84" r="6" fill="#1d4ed8"/>
<text x="1590.56" y="1286.84" text-anchor="middle" font-family="Arial" font-size="14" fill="#1e293b">3.79s</text>
<circle cx="1723.33" cy="1310.45" r="6" fill="#1d4ed8"/>
<text x="1723.33" y="1296.45" text-anchor="middle" font-family="Arial" font-size="14" fill="#1e293b">2.86s</text>
<circle cx="1856.11" cy="1300.11" r="6" fill="#1d4ed8"/>
<text x="1856.11" y="1286.11" text-anchor="middle" font-family="Arial" font-size="14" fill="#1e293b">3.86s</text>
<circle cx="1988.89" cy="1298.05" r="6" fill="#1d4ed8"/>
<text x="1988.89" y="1284.05" text-anchor="middle" font-family="Arial" font-size="14" fill="#1e293b">4.06s</text>
<circle cx="2121.67" cy="1278.10" r="6" fill="#1d4ed8"/>
<text x="2121.67" y="1264.10" text-anchor="middle" font-family="Arial" font-size="14" fill="#1e293b">5.99s</text>
<circle cx="2254.44" cy="1196.16" r="6" fill="#1d4ed8"/>
<text x="2254.44" y="1182.16" text-anchor="middle" font-family="Arial" font-size="14" fill="#1e293b">13.92s</text>
<circle cx="2387.22" cy="1152.14" r="6" fill="#1d4ed8"/>
<text x="2387.22" y="1138.14" text-anchor="middle" font-family="Arial" font-size="14" fill="#1e293b">18.18s</text>
<circle cx="2520.00" cy="906.21" r="6" fill="#1d4ed8"/>
<text x="2520.00" y="892.21" text-anchor="middle" font-family="Arial" font-size="14" fill="#1e293b">41.98s</text>
<text x="1325.00" y="1440" text-anchor="middle" font-family="Arial" font-size="24" fill="#0f172a">Complexity (l=p=c=g)</text>
<text x="42" y="720.00" text-anchor="middle" font-family="Arial" font-size="24" fill="#0f172a" transform="rotate(-90,42,720.00)">Time (seconds)</text>
</svg>